<svg width="25" height="24" viewBox="0 0 25 24" fill="none" xmlns="http://www.w3.org/2000/svg">
<path d="M19.3485 4.42691V8.14966H19.1821C17.5613 8.14966 15.9406 8.14854 14.3198 8.15189C14.1862 8.15189 14.121 8.12507 14.0787 7.96693C13.941 7.45451 13.5194 7.12034 13.0189 7.10693C12.674 7.09743 12.3291 7.09743 11.9842 7.10693C11.478 7.12034 11.0559 7.46457 10.9134 7.98481C10.8805 8.10551 10.8456 8.15357 10.7214 8.15301C9.0615 8.14854 7.4016 8.14966 5.74223 8.14966C5.71092 8.14966 5.67962 8.14575 5.63735 8.14239V6.7275H5.87582C9.72263 6.7275 13.5694 6.7275 17.4163 6.72639C17.5671 6.72639 17.7664 6.77109 17.7664 6.51795C17.7664 6.26482 17.5676 6.30952 17.4168 6.30952C13.57 6.3084 9.72316 6.30896 5.87634 6.30896H5.61804C5.67544 5.53893 5.51368 4.77616 5.77511 4.03854C6.11742 3.07405 6.97998 2.42081 7.9422 2.41969C10.9818 2.4169 14.0219 2.41019 17.0614 2.4236C18.0294 2.42807 18.7203 2.95167 19.1591 3.86699C19.1763 3.90276 19.1863 3.94187 19.2103 4.00781H18.964C15.3645 4.00781 11.765 4.00781 8.16554 4.00781C8.11336 4.00781 8.06118 4.00837 8.00952 4.00781C7.87228 4.00613 7.77627 4.06313 7.77888 4.22295C7.78096 4.36991 7.87228 4.42691 8.00117 4.42579C8.05961 4.42579 8.11858 4.42579 8.17702 4.42579C11.8088 4.42579 15.4412 4.42579 19.073 4.42579H19.3496L19.3485 4.42691Z" fill="#B6E0ED" style="fill:#B6E0ED;fill:color(display-p3 0.7137 0.8784 0.9294);fill-opacity:1;"/>
<path d="M16.3585 12.0105V18.8055H8.64868V12.0127H11.7942C11.7352 12.0859 11.7065 12.1485 11.6601 12.1759C11.2421 12.4212 11.0433 12.7962 11.0542 13.3047C11.0589 13.5187 11.0548 13.7333 11.0548 13.9557C10.9655 13.9607 10.8951 13.9613 10.8252 13.9691C10.5481 14.001 10.3305 14.1965 10.3247 14.4893C10.3133 15.0733 10.2893 15.6645 10.3571 16.2412C10.4662 17.1677 11.2358 17.8444 12.1104 17.8517C12.4673 17.8545 12.83 17.8707 13.1806 17.8153C14.0098 17.684 14.6443 16.9118 14.6803 16.0138C14.6996 15.5338 14.6918 15.0521 14.684 14.5715C14.6782 14.2127 14.4664 13.9898 14.1345 13.9663C14.0776 13.9624 14.0208 13.9607 13.9446 13.9574C13.9446 13.6975 13.9733 13.4433 13.9362 13.2002C13.9013 12.9672 13.8355 12.7196 13.715 12.5274C13.596 12.3368 13.392 12.2072 13.2511 12.0105H16.3574H16.3585Z" fill="#B6E0ED" style="fill:#B6E0ED;fill:color(display-p3 0.7137 0.8784 0.9294);fill-opacity:1;"/>
<path d="M10.8462 11.5796H10.6202C8.3107 11.5796 6.00115 11.5796 3.6916 11.5796C3.14995 11.5796 2.8927 11.3029 2.8927 10.7223C2.8927 10.5843 2.8927 10.4463 2.8927 10.2831H3.13378C4.72114 10.2831 6.3085 10.2831 7.89638 10.2831C7.96108 10.2831 8.04249 10.3044 8.08736 10.2714C8.15259 10.2239 8.22669 10.1378 8.23138 10.0635C8.23504 10.0026 8.15207 9.91767 8.08893 9.87688C8.0404 9.84558 7.96213 9.86514 7.89742 9.86514C6.31006 9.86514 4.7227 9.86514 3.13482 9.86514H2.90835C2.90835 9.61592 2.88122 9.37116 2.91514 9.13702C2.96158 8.81292 3.24806 8.57096 3.5554 8.57096C5.96932 8.56816 8.38271 8.5704 10.7966 8.57096C10.8091 8.57096 10.8211 8.57654 10.8478 8.58269V11.5807L10.8462 11.5796Z" fill="#B6E0ED" style="fill:#B6E0ED;fill:color(display-p3 0.7137 0.8784 0.9294);fill-opacity:1;"/>
<path d="M22.109 9.86454H21.8732C20.2858 9.86454 18.6985 9.86454 17.1106 9.86454C17.0584 9.86454 17.0062 9.8623 16.9546 9.86621C16.8319 9.8746 16.7589 9.94445 16.7615 10.0786C16.7641 10.2132 16.8408 10.2775 16.9629 10.282C17.0151 10.2842 17.0667 10.2831 17.1189 10.2831C18.7063 10.2831 20.2936 10.2831 21.8815 10.2831H22.1028C22.1028 10.5245 22.1221 10.748 22.0986 10.9659C22.06 11.3269 21.7594 11.5789 21.3941 11.5789C20.2362 11.5806 19.0778 11.5795 17.9199 11.5795C16.6707 11.5795 15.422 11.5795 14.1571 11.5795V8.56812H14.357C16.6863 8.56812 19.0152 8.56812 21.3446 8.56812C21.8356 8.56812 22.108 8.85758 22.1096 9.37838C22.1096 9.53093 22.1096 9.68349 22.1096 9.8651L22.109 9.86454Z" fill="#B6E0ED" style="fill:#B6E0ED;fill:color(display-p3 0.7137 0.8784 0.9294);fill-opacity:1;"/>
<path d="M19.4832 19.249V20.6455H5.52466V19.249H19.4832Z" fill="#B6E0ED" style="fill:#B6E0ED;fill:color(display-p3 0.7137 0.8784 0.9294);fill-opacity:1;"/>
<path d="M5.52258 14.5078C5.95204 14.5078 6.3674 14.5095 6.78329 14.5072C6.95809 14.5061 7.05202 14.4122 7.02802 14.2675C7.00401 14.1205 6.90487 14.0887 6.78224 14.0892C6.36688 14.0915 5.95099 14.0898 5.52258 14.0898V12.0105H8.23393V18.8H5.5231V14.5083L5.52258 14.5078Z" fill="#B6E0ED" style="fill:#B6E0ED;fill:color(display-p3 0.7137 0.8784 0.9294);fill-opacity:1;"/>
<path d="M16.7719 12.0066H19.4811V17.1012C19.0856 17.1012 18.6973 17.1012 18.3086 17.1012C18.2501 17.1012 18.1917 17.1023 18.1327 17.1012C17.9981 17.0978 17.8958 17.147 17.8943 17.308C17.8927 17.4678 17.9913 17.5203 18.1275 17.5203C18.5116 17.5192 18.8951 17.5203 19.2792 17.5203C19.3428 17.5203 19.4065 17.5203 19.4811 17.5203V18.8H16.7719V12.0072V12.0066Z" fill="#B6E0ED" style="fill:#B6E0ED;fill:color(display-p3 0.7137 0.8784 0.9294);fill-opacity:1;"/>
<path d="M3.76767 12.0081H5.11812V12.2288C5.11812 15.2122 5.11812 18.1957 5.11812 21.1791C5.11812 21.4926 5.04194 21.5753 4.75077 21.5764C4.51647 21.5776 4.28218 21.5792 4.04788 21.5759C3.84855 21.5731 3.75254 21.4803 3.75254 21.2758C3.75097 18.2085 3.75201 15.1418 3.75254 12.0746C3.75254 12.0556 3.76088 12.036 3.76767 12.0081ZM4.60727 13.6141C4.60727 13.6141 4.60883 13.6141 4.60988 13.6141C4.60988 13.5721 4.60988 13.5308 4.60988 13.4889C4.60883 13.3503 4.55196 13.257 4.41524 13.257C4.27852 13.257 4.2206 13.3492 4.22008 13.4883C4.22008 13.5856 4.19817 13.6928 4.22895 13.7778C4.25661 13.8527 4.34793 13.9544 4.40324 13.9493C4.47525 13.9426 4.54935 13.8499 4.60257 13.7778C4.62762 13.7437 4.60675 13.6699 4.60675 13.6146L4.60727 13.6141ZM4.22008 15.196C4.22008 15.2379 4.22008 15.2793 4.22008 15.3212C4.22217 15.4609 4.28218 15.5514 4.41837 15.5492C4.55509 15.547 4.6104 15.4525 4.60988 15.3139C4.60988 15.2234 4.63336 15.1217 4.60205 15.0457C4.56918 14.9658 4.49195 14.8708 4.41941 14.8529C4.30201 14.8239 4.23052 14.9183 4.22113 15.0502C4.21799 15.0988 4.2206 15.1474 4.22008 15.196ZM4.22008 16.7853C4.22008 16.8272 4.22008 16.8685 4.22008 16.9104C4.22165 17.0501 4.28166 17.1407 4.41785 17.139C4.55456 17.1373 4.60988 17.0423 4.60988 16.9043C4.60988 16.8138 4.63336 16.7121 4.60205 16.6361C4.56918 16.5556 4.49247 16.4612 4.41941 16.4427C4.30201 16.4137 4.23 16.5075 4.22113 16.6394C4.21799 16.688 4.2206 16.7366 4.22008 16.7853ZM4.60779 18.3806C4.60779 18.3806 4.60935 18.3806 4.60988 18.3806C4.60988 18.3387 4.60988 18.2974 4.60988 18.2555C4.60831 18.1163 4.54987 18.0247 4.41367 18.0252C4.27696 18.0264 4.22008 18.1197 4.22008 18.2583C4.22008 18.3555 4.19817 18.4633 4.22947 18.5472C4.25713 18.6215 4.34949 18.7226 4.40533 18.717C4.47681 18.7098 4.55039 18.6165 4.60309 18.5433C4.62814 18.5086 4.60727 18.4354 4.60727 18.3801L4.60779 18.3806ZM4.2206 19.9637H4.22008C4.22008 20.0056 4.22008 20.047 4.22008 20.0889C4.22165 20.2286 4.28166 20.3191 4.41733 20.3175C4.55404 20.3158 4.60935 20.2213 4.60935 20.0828C4.60935 19.9922 4.63284 19.8905 4.60153 19.8145C4.56865 19.7341 4.49195 19.6396 4.41941 19.6212C4.30201 19.5916 4.23 19.686 4.2206 19.8173C4.21695 19.8659 4.22008 19.9146 4.22008 19.9632L4.2206 19.9637Z" fill="#B6E0ED" style="fill:#B6E0ED;fill:color(display-p3 0.7137 0.8784 0.9294);fill-opacity:1;"/>
<path d="M19.8965 12.0081H21.2496C21.2496 12.0857 21.2496 12.1539 21.2496 12.2215C21.2496 15.205 21.2496 18.1884 21.2496 21.1713C21.2496 21.5027 21.1818 21.5759 20.8744 21.5764C20.6401 21.5764 20.4058 21.5809 20.1715 21.5742C19.9785 21.5686 19.884 21.4664 19.884 21.2618C19.883 18.2018 19.884 15.1418 19.884 12.0818C19.884 12.0623 19.8908 12.0421 19.8965 12.0081ZM20.3912 13.6068C20.3912 13.6487 20.3912 13.6901 20.3912 13.732C20.3933 13.8717 20.4533 13.9622 20.5895 13.96C20.7262 13.9577 20.7815 13.8627 20.781 13.7247C20.781 13.6342 20.8045 13.5325 20.7732 13.4565C20.7403 13.3766 20.6631 13.2816 20.5905 13.2637C20.4731 13.2346 20.4016 13.3291 20.3923 13.4609C20.3891 13.5096 20.3917 13.5582 20.3912 13.6068ZM20.7784 15.2033C20.7784 15.2033 20.78 15.2033 20.781 15.2033C20.781 15.1614 20.781 15.12 20.781 15.0781C20.78 14.939 20.7226 14.8468 20.5858 14.8468C20.4491 14.8468 20.3912 14.939 20.3912 15.0781C20.3912 15.1754 20.3693 15.2826 20.4006 15.3676C20.4283 15.4425 20.5196 15.5442 20.5754 15.5391C20.6474 15.5324 20.7215 15.4397 20.7747 15.367C20.7998 15.3324 20.7789 15.2592 20.7789 15.2039L20.7784 15.2033ZM20.7784 16.7914C20.7784 16.7914 20.78 16.7914 20.781 16.7914C20.781 16.7495 20.781 16.7081 20.781 16.6662C20.7794 16.5271 20.722 16.4349 20.5853 16.4355C20.4486 16.4355 20.3912 16.5288 20.3912 16.6679C20.3912 16.7651 20.3693 16.8724 20.4006 16.9574C20.4283 17.0317 20.5206 17.1334 20.5759 17.1278C20.6479 17.1205 20.7215 17.0278 20.7742 16.9551C20.7993 16.9205 20.7784 16.8473 20.7784 16.792V16.7914ZM20.7784 18.3851C20.7784 18.3851 20.7805 18.3851 20.781 18.3851C20.781 18.3432 20.781 18.3019 20.781 18.2599C20.781 18.1219 20.7262 18.0269 20.589 18.0252C20.4528 18.0236 20.3923 18.1135 20.3912 18.2532C20.3907 18.3505 20.3667 18.46 20.4006 18.5421C20.433 18.6198 20.5222 18.7098 20.5937 18.7176C20.6495 18.7238 20.7267 18.6198 20.7737 18.5494C20.7982 18.5125 20.7779 18.4416 20.7779 18.3857L20.7784 18.3851ZM20.7805 19.9665C20.7805 19.9179 20.7831 19.8687 20.78 19.8207C20.7711 19.6894 20.7059 19.6117 20.5812 19.615C20.4559 19.6178 20.3954 19.7005 20.3917 19.8313C20.3896 19.9218 20.3896 20.0124 20.3917 20.1029C20.3949 20.2336 20.4559 20.3163 20.5812 20.3191C20.7059 20.3219 20.7711 20.2448 20.78 20.1135C20.7831 20.0649 20.78 20.0163 20.7805 19.9676V19.9665Z" fill="#B6E0ED" style="fill:#B6E0ED;fill:color(display-p3 0.7137 0.8784 0.9294);fill-opacity:1;"/>
<path d="M12.5039 14.3824C13.0049 14.3824 13.5058 14.3819 14.0062 14.3824C14.2473 14.3824 14.2958 14.4327 14.2969 14.6831C14.2985 15.0804 14.3005 15.4771 14.2969 15.8744C14.288 16.7702 13.6702 17.4301 12.8389 17.4357C12.5984 17.4374 12.3578 17.4385 12.1167 17.4357C11.3518 17.4245 10.7292 16.7735 10.7073 15.9515C10.6958 15.5201 10.7073 15.0876 10.7026 14.6562C10.7005 14.4607 10.7819 14.3802 10.9625 14.3819C11.4765 14.3863 11.9899 14.3835 12.5039 14.3835V14.3824ZM12.5013 14.9267C12.1762 14.9267 11.8887 15.1631 11.8136 15.4933C11.7442 15.7984 11.8892 16.1471 12.1726 16.2969C12.2869 16.3572 12.3182 16.4282 12.3072 16.5517C12.2942 16.7031 12.3229 16.8451 12.5003 16.8451C12.6772 16.8451 12.709 16.7048 12.6944 16.5528C12.6813 16.4165 12.7273 16.3505 12.8457 16.2874C13.1249 16.1371 13.2616 15.7794 13.1828 15.4743C13.0993 15.1508 12.8212 14.9267 12.5018 14.9267H12.5013Z" fill="#B6E0ED" style="fill:#B6E0ED;fill:color(display-p3 0.7137 0.8784 0.9294);fill-opacity:1;"/>
<path d="M11.7583 11.5706H11.2594C11.2563 11.5013 11.2511 11.4342 11.2511 11.3677C11.2506 10.3926 11.25 9.41694 11.2511 8.44183C11.2516 7.86347 11.5715 7.52427 12.1142 7.5226C12.4069 7.52204 12.6996 7.51589 12.9924 7.52483C13.4051 7.53769 13.7428 7.88414 13.7464 8.32448C13.7553 9.38341 13.7495 10.4423 13.749 11.5013C13.749 11.5208 13.7412 11.5398 13.7344 11.5689H13.2423C13.2423 11.4141 13.2439 11.2571 13.2423 11.1001C13.2361 10.6133 12.9355 10.282 12.505 10.2836C12.0985 10.2853 11.7656 10.653 11.7588 11.1084C11.7567 11.2543 11.7588 11.4007 11.7588 11.5706H11.7583Z" fill="#B6E0ED" style="fill:#B6E0ED;fill:color(display-p3 0.7137 0.8784 0.9294);fill-opacity:1;"/>
<path d="M6.48585 2.44372C5.75897 2.96173 5.36917 3.67196 5.25437 4.56046C5.23767 4.69066 5.23663 4.82422 5.23663 4.95665C5.23507 5.93959 5.23611 6.92196 5.23611 7.9049C5.23611 7.97978 5.23611 8.05466 5.23611 8.13904H3.88565C3.88044 8.1016 3.87 8.06248 3.87 8.02336C3.86948 6.9499 3.85748 5.87644 3.87313 4.80354C3.894 3.39536 5.1688 2.23919 6.48638 2.44372H6.48585Z" fill="#B6E0ED" style="fill:#B6E0ED;fill:color(display-p3 0.7137 0.8784 0.9294);fill-opacity:1;"/>
<path d="M21.1327 8.13945H19.7655V7.90531C19.7655 6.92964 19.7655 5.95397 19.7655 4.97886C19.7655 3.93893 19.383 3.10631 18.5925 2.49386C18.5773 2.48213 18.5638 2.4676 18.5267 2.43295C19.1206 2.3726 19.645 2.50224 20.1104 2.85429C20.7758 3.35777 21.1275 4.05069 21.1311 4.92968C21.1358 5.93329 21.1322 6.93635 21.1322 7.93996V8.13945H21.1327Z" fill="#B6E0ED" style="fill:#B6E0ED;fill:color(display-p3 0.7137 0.8784 0.9294);fill-opacity:1;"/>
<path d="M11.7531 12.6184C11.883 13.0207 12.1069 13.2851 12.5024 13.2901C12.9094 13.2957 13.1442 13.042 13.2486 12.6212C13.7088 12.985 13.5012 13.4929 13.5648 13.9523H11.4374C11.4963 13.4963 11.2928 12.9917 11.7526 12.6184H11.7531Z" fill="#B6E0ED" style="fill:#B6E0ED;fill:color(display-p3 0.7137 0.8784 0.9294);fill-opacity:1;"/>
<path d="M12.8514 11.7891C12.8514 12.0188 12.8556 12.249 12.8504 12.4787C12.8452 12.7123 12.6965 12.8766 12.5044 12.8749C12.3166 12.8732 12.1538 12.7005 12.1512 12.4787C12.1454 12.0188 12.1454 11.5589 12.1512 11.0996C12.1538 10.8777 12.3171 10.7051 12.5044 10.7034C12.697 10.7017 12.8452 10.866 12.8504 11.0996C12.8556 11.3292 12.8514 11.5595 12.8514 11.7891Z" fill="#B6E0ED" style="fill:#B6E0ED;fill:color(display-p3 0.7137 0.8784 0.9294);fill-opacity:1;"/>
<path d="M12.4961 15.9694C12.3401 15.9666 12.1809 15.7877 12.1898 15.6251C12.1982 15.4726 12.3437 15.3435 12.5045 15.3457C12.6667 15.348 12.8076 15.481 12.8108 15.6341C12.8144 15.7989 12.6516 15.9721 12.4961 15.9694Z" fill="#B6E0ED" style="fill:#B6E0ED;fill:color(display-p3 0.7137 0.8784 0.9294);fill-opacity:1;"/>
</svg>
