<svg width="24" height="24" viewBox="0 0 24 24" fill="none" xmlns="http://www.w3.org/2000/svg">
<path d="M14.5169 22C14.5169 21.8893 14.5169 21.8078 14.5169 21.7233C14.5169 20.7245 14.5169 19.7227 14.5169 18.7239C14.5169 17.393 13.6925 16.3563 12.4347 16.1C10.9913 15.8059 9.54217 16.997 9.51403 18.5171C9.49433 19.5888 9.5084 20.6575 9.5084 21.7292C9.5084 21.8107 9.5084 21.8952 9.5084 22H9.25798C7.00696 22 4.75594 22 2.50492 22C2.09973 22 2.00125 21.8952 2.00125 21.47C2.00125 21.2428 1.99844 21.0157 2.00125 20.7886C2.00688 20.5352 2.13913 20.3983 2.38674 20.3925C2.66249 20.3867 2.93542 20.3925 3.21117 20.3925C3.39313 20.3925 3.48411 20.3003 3.48411 20.1159C3.48411 17.7483 3.48411 15.3778 3.48411 13.0103C3.48411 12.5734 3.58259 12.4686 4.00184 12.4657C4.24946 12.4657 4.49707 12.4628 4.74187 12.4657C5.05701 12.4715 5.18363 12.6084 5.18644 12.9404C5.18644 13.3568 5.18644 13.7762 5.18644 14.2246C5.59725 14.2246 5.994 14.2275 6.38793 14.2159C6.41888 14.2159 6.47515 14.1023 6.47515 14.0412C6.48359 13.6655 6.47515 13.2898 6.48078 12.9142C6.48078 12.5967 6.59614 12.4744 6.90003 12.4686C7.18704 12.4628 7.47686 12.4628 7.76386 12.4686C8.04243 12.4773 8.1606 12.6026 8.16342 12.8909C8.16623 13.2665 8.16904 13.6422 8.16342 14.0179C8.16342 14.1664 8.19718 14.2363 8.35757 14.2304C8.73461 14.2188 9.10885 14.2275 9.50277 14.2275V9.94089C9.14542 9.83605 9.01881 9.705 9.0385 9.44291C9.04413 9.35555 9.08071 9.26236 9.12291 9.18664C9.93891 7.77426 10.7465 6.35897 11.5878 4.96406C11.7369 4.71653 11.7847 4.48647 11.7819 4.21564C11.7763 3.5575 11.7763 2.89645 11.7819 2.23831C11.7819 2.1626 11.841 2.02864 11.8804 2.02573C11.9902 2.01699 12.1449 1.92962 12.204 2.13639C12.2153 2.17716 12.3081 2.2121 12.3672 2.21501C12.5782 2.22375 12.7921 2.22084 13.0059 2.22084C13.2085 2.22084 13.3351 2.3315 13.3633 2.52952C13.383 2.68095 13.3802 2.84112 13.3576 2.99255C13.3295 3.1731 13.2085 3.27503 13.0256 3.27794C12.8118 3.28085 12.6007 3.28668 12.3869 3.27794C12.249 3.27503 12.1899 3.3158 12.1927 3.47014C12.2012 3.83998 12.1927 4.20691 12.1984 4.57675C12.1984 4.63208 12.204 4.69323 12.2321 4.73691C12.7555 5.61929 13.2817 6.49584 13.8022 7.37821C14.1483 7.96355 14.4888 8.55471 14.8293 9.14587C15.0825 9.57978 14.9953 9.80984 14.5141 9.94089C14.5113 10.0108 14.5057 10.0894 14.5057 10.1651C14.5057 11.4348 14.5085 12.7045 14.5 13.9742C14.5 14.1809 14.5591 14.2421 14.7533 14.2334C15.1078 14.2188 15.4623 14.2304 15.845 14.2304C15.845 13.8111 15.845 13.4151 15.845 13.019C15.845 12.5793 15.9548 12.4686 16.3796 12.4657C16.6413 12.4657 16.9002 12.4599 17.1619 12.4686C17.4179 12.4773 17.5445 12.62 17.5474 12.888C17.5502 13.2694 17.553 13.6538 17.5474 14.0353C17.5445 14.1868 17.5952 14.2334 17.7359 14.2275C18.051 14.2188 18.3662 14.2188 18.6841 14.2275C18.8304 14.2304 18.8783 14.178 18.8755 14.0324C18.8698 13.6626 18.8726 13.2957 18.8755 12.9258C18.8783 12.5851 18.9908 12.4686 19.3228 12.4628C19.5761 12.4599 19.8321 12.4599 20.0854 12.4628C20.4568 12.4657 20.5637 12.5793 20.5637 12.9578C20.5637 15.34 20.5637 17.7221 20.5637 20.1042C20.5637 20.3003 20.6613 20.3983 20.8564 20.3983C21.104 20.3983 21.3516 20.3983 21.5964 20.3983C21.8637 20.4012 21.9959 20.5381 21.9987 20.8206C22.0016 21.0623 21.9987 21.304 21.9987 21.5428C21.9987 21.8631 21.8721 21.9942 21.5626 21.9942C19.9644 21.9942 18.3634 21.9942 16.7651 21.9942C16.1067 21.9942 15.4483 21.9942 14.7899 21.9942H14.5254L14.5169 22Z" fill="#B6E0ED" style="fill:#B6E0ED;fill:color(display-p3 0.7122 0.8789 0.9302);fill-opacity:1;"/>
</svg>
