<svg width="25" height="24" viewBox="0 0 25 24" fill="none" xmlns="http://www.w3.org/2000/svg">
<path d="M2.75 15.9549C2.9587 15.0008 3.56444 14.4029 4.29749 13.9256C4.42218 13.8443 4.45975 13.7562 4.45923 13.6051C4.45662 13.2095 4.43418 12.8072 4.48792 12.419C4.57453 11.7934 4.93245 11.3262 5.36758 10.9347C5.5721 10.7505 5.79541 10.588 6.0208 10.434C6.11784 10.3681 6.15071 10.301 6.14967 10.1811C6.14654 9.79866 6.12619 9.41279 6.16271 9.03374C6.22689 8.36771 6.58324 7.87045 7.03611 7.45276C7.23854 7.26579 7.45976 7.09929 7.68672 6.94869C7.8109 6.86629 7.85211 6.77707 7.84742 6.62533C7.83698 6.31391 7.82863 6.00135 7.84429 5.69106C7.87872 5.01253 8.19333 4.48629 8.64255 4.0453C9.31821 3.3821 10.128 2.98316 10.9815 2.68481C12.6819 2.09095 14.4292 1.92501 16.2042 2.02901C17.5628 2.10857 18.8911 2.35577 20.1626 2.90019C20.8878 3.21105 21.5697 3.60317 22.1176 4.22545C22.536 4.7011 22.7682 5.25405 22.7489 5.92804C22.7332 6.48724 22.7338 7.04814 22.7489 7.6079C22.7671 8.27451 22.5485 8.83712 22.1191 9.28663C21.8358 9.58385 21.5045 9.82764 21.1847 10.0811C21.0897 10.1561 21.0423 10.2243 21.0454 10.3533C21.0527 10.6789 21.0616 11.0051 21.0464 11.3302C21.0162 11.9849 20.7219 12.5054 20.2863 12.9282C20.04 13.1669 19.7614 13.3675 19.4885 13.571C19.3925 13.6426 19.343 13.7079 19.3487 13.8398C19.3591 14.0875 19.3419 14.3365 19.3539 14.5837C19.3857 15.2582 19.1583 15.8265 18.7231 16.2823C18.444 16.5744 18.12 16.8176 17.8033 17.0631C17.6943 17.1478 17.6452 17.2245 17.6499 17.3688C17.6598 17.6803 17.6676 17.9928 17.653 18.3031C17.6243 18.8981 17.3734 19.3863 16.9951 19.8017C16.3956 20.4609 15.6532 20.865 14.8669 21.1798C13.7295 21.6356 12.5483 21.8612 11.3426 21.9538C10.1765 22.0436 9.01351 22.0055 7.85837 21.8129C6.61872 21.606 5.41401 21.265 4.31992 20.5643C3.57174 20.0853 2.95139 19.4835 2.75 18.5066V15.9544L2.75 15.9549ZM15.6261 9.11785C16.141 9.12808 16.9883 9.04795 17.8304 8.89338C18.9522 8.68766 20.0353 8.35123 21.0261 7.72156C21.4106 7.4772 21.7618 7.18623 22.0357 6.79696C22.5131 6.11842 22.5324 5.36884 22.0294 4.71247C21.7831 4.39195 21.4784 4.10554 21.1565 3.87652C20.1991 3.19627 19.1176 2.86212 18.0047 2.64049C16.4369 2.32849 14.8607 2.30065 13.2824 2.52058C12.1685 2.67572 11.0838 2.95986 10.0643 3.49122C9.48464 3.79298 8.94151 4.15384 8.54499 4.7227C8.08168 5.38817 8.07855 6.11614 8.54812 6.77763C8.69368 6.98279 8.86951 7.16919 9.05421 7.33456C9.57334 7.79771 10.1749 8.10004 10.802 8.34441C12.252 8.90929 13.7551 9.11217 15.6266 9.11842L15.6261 9.11785ZM7.80255 7.27432C7.53385 7.51925 7.26776 7.7227 7.04446 7.97104C6.30724 8.79052 6.31819 9.7191 7.05802 10.5386C7.43733 10.9585 7.89229 11.2592 8.37751 11.5069C9.5269 12.094 10.7467 12.3838 12.0026 12.5191C13.7181 12.7038 15.4189 12.6123 17.0969 12.1627C18.0099 11.9178 18.8854 11.5677 19.6643 10.9745C19.7014 10.946 19.739 10.9171 19.7734 10.8852C19.8068 10.8545 19.837 10.8199 19.8689 10.7869C18.7054 11.187 17.5236 11.4137 16.3137 11.4944C14.7396 11.5996 13.1859 11.4814 11.6556 11.0597C10.6753 10.7892 9.73664 10.4067 8.91908 9.73615C8.43751 9.34119 8.0342 8.87064 7.89542 8.20802C7.83594 7.92444 7.83542 7.62609 7.80255 7.27375V7.27432ZM6.13558 10.804C5.76149 11.0455 5.44323 11.3205 5.18601 11.6729C4.6601 12.3923 4.66323 13.184 5.25332 13.8398C5.56741 14.1887 5.93732 14.503 6.32915 14.7399C7.77855 15.6162 9.36777 15.9566 11.0029 16.0788C12.11 16.1618 13.2125 16.0982 14.3102 15.914C15.4549 15.7225 16.561 15.3986 17.5852 14.7956C17.8743 14.6257 18.1424 14.4132 18.42 14.22C18.3803 14.1785 18.36 14.1728 18.3438 14.1796C17.1673 14.6592 15.9464 14.8979 14.6963 14.9854C13.0241 15.1025 11.3713 14.982 9.75073 14.4996C8.80638 14.2182 7.9022 13.8301 7.12794 13.1527C6.6568 12.7407 6.27437 12.2537 6.17158 11.5785C6.13454 11.3365 6.14706 11.0847 6.13558 10.804ZM4.4107 14.2904C3.90096 14.6519 3.44131 15.0445 3.20392 15.6702C3.04844 16.08 3.07139 16.4863 3.242 16.8847C3.39957 17.2523 3.64635 17.5416 3.93331 17.7928C4.55105 18.3338 5.26375 18.6725 6.00984 18.9322C7.37837 19.4084 8.78551 19.5892 10.2193 19.5835C11.8852 19.5772 13.5099 19.3368 15.0652 18.6594C15.5734 18.4384 16.0534 18.1588 16.5198 17.7377C16.4395 17.7615 16.4102 17.7689 16.3821 17.7792C15.2989 18.1707 14.1866 18.3923 13.0476 18.4736C11.4693 18.5861 9.90621 18.4929 8.36603 18.0803C7.36481 17.8121 6.40324 17.4348 5.56323 16.7602C5.06132 16.3573 4.64079 15.8771 4.49731 15.1912C4.43783 14.9076 4.43888 14.6092 4.40966 14.2916L4.4107 14.2904ZM9.30621 17.9434C9.30621 17.3507 9.30986 16.842 9.29995 16.3334C9.2989 16.2902 9.2149 16.2266 9.1596 16.2107C8.68899 16.0737 8.21577 15.9498 7.74516 15.814C7.57924 15.7663 7.41855 15.6969 7.23385 15.6293C7.23385 16.1624 7.23176 16.6647 7.2375 17.1671C7.23802 17.2165 7.27976 17.2978 7.31733 17.3097C7.96064 17.52 8.60655 17.7223 9.30621 17.9434ZM12.4387 19.8085C12.2598 19.8307 12.1054 19.8568 11.9504 19.8682C11.4767 19.9034 11.0024 19.9296 10.5292 19.9682C10.4754 19.9727 10.382 20.0341 10.3815 20.0705C10.3716 20.5785 10.3747 21.0866 10.3747 21.6407C11.0786 21.581 11.7553 21.5236 12.4393 21.4656V19.8085H12.4387ZM10.0147 19.9949C9.31612 19.9398 8.63994 19.8858 7.96168 19.8324V21.4696C8.64881 21.5259 9.32551 21.5821 10.0147 21.6384V19.9949ZM15.829 14.4819V12.8504C15.1382 12.9049 14.4605 12.9584 13.7833 13.0123V14.6575C14.472 14.5984 15.1435 14.541 15.829 14.4825V14.4819ZM13.4029 14.657V13.0129C12.7111 12.9578 12.0349 12.9044 11.3546 12.8504V14.4802C12.037 14.5393 12.7127 14.5973 13.4029 14.657ZM9.66673 17.9729C10.3533 18.0309 11.0342 18.0877 11.7182 18.1457V16.5193C11.028 16.4556 10.3507 16.3937 9.66673 16.3306V17.9729ZM17.533 10.9881V9.35994C16.8412 9.41563 16.164 9.46962 15.4941 9.52361V11.1586C16.1817 11.1012 16.848 11.0455 17.533 10.9881ZM15.1106 11.1574V9.52361C14.4203 9.46848 13.7436 9.4145 13.0669 9.36051V10.9898C13.7541 11.0461 14.425 11.1012 15.1106 11.1574ZM7.58863 19.7767C6.89889 19.5823 6.2175 19.3908 5.52567 19.1959C5.52567 19.6812 5.52097 20.1699 5.53141 20.6581C5.53245 20.7161 5.60601 20.8025 5.66236 20.824C5.96915 20.94 6.27802 21.0502 6.59158 21.1412C6.91506 21.2349 7.24481 21.3037 7.58863 21.3878V19.7773V19.7767ZM12.8081 21.3509C12.8509 21.3548 12.8713 21.3628 12.889 21.3577C13.5161 21.1764 14.1433 20.9968 14.7673 20.8042C14.8158 20.7894 14.869 20.682 14.8711 20.6166C14.881 20.2484 14.8753 19.8796 14.8753 19.5113C14.8753 19.4033 14.8753 19.2948 14.8753 19.1931C14.1641 19.3931 13.4885 19.5835 12.8087 19.775V21.3514L12.8081 21.3509ZM16.2036 14.3649C16.2313 14.3711 16.2522 14.3831 16.2683 14.3785C16.8991 14.1967 17.5304 14.0165 18.1586 13.8239C18.2076 13.8091 18.2629 13.7034 18.264 13.6386C18.2734 13.1999 18.2697 12.7612 18.2676 12.3224C18.2676 12.2809 18.2494 12.2395 18.2452 12.2213C17.5549 12.4151 16.884 12.6032 16.2031 12.7947V14.3654L16.2036 14.3649ZM12.0887 18.1468C12.7888 18.086 13.4681 18.0269 14.1386 17.9684V16.3516C13.4478 16.4073 12.7711 16.4624 12.0887 16.5175V18.1474V18.1468ZM10.9847 12.7947C10.2881 12.5981 9.61195 12.4071 8.92221 12.2122C8.92221 12.7026 8.91908 13.2027 8.92742 13.7028C8.92794 13.7477 8.9989 13.8125 9.04899 13.8307C9.37403 13.9489 9.69908 14.0677 10.0299 14.1648C10.3398 14.2558 10.656 14.3211 10.9847 14.4012V12.7947ZM17.9103 10.9466C18.5807 10.7369 19.225 10.5374 19.8678 10.3306C19.9101 10.3169 19.9659 10.2482 19.9664 10.2044C19.9732 9.70603 19.9706 9.20764 19.9706 8.72118C19.271 8.91895 18.5901 9.11103 17.9097 9.30368V10.9466H17.9103ZM12.6981 10.9523C12.6981 10.3726 12.7022 9.87822 12.6913 9.38324C12.6902 9.3338 12.6031 9.25822 12.5452 9.24287C12.1424 9.13319 11.7354 9.04284 11.3327 8.93259C11.1015 8.86951 10.8761 8.78029 10.6236 8.69447C10.6236 9.21673 10.6215 9.7174 10.6278 10.2181C10.6278 10.2573 10.6826 10.3175 10.7222 10.33C11.365 10.5363 12.0094 10.7369 12.697 10.9523H12.6981ZM14.5127 17.9212C15.1048 17.7439 15.6678 17.5842 16.225 17.4064C16.5803 17.2927 16.5772 17.2808 16.5772 16.8784C16.5772 16.4937 16.5772 16.1095 16.5772 15.739C15.8765 15.9294 15.1993 16.1129 14.5127 16.2993V17.9218V17.9212ZM6.88324 17.1233C6.88324 16.6238 6.87072 16.1698 6.88898 15.7168C6.8968 15.5162 6.82533 15.4338 6.67037 15.3582C6.01767 15.0411 5.41297 14.645 4.93871 14.0466C4.9074 14.0074 4.88705 13.9574 4.86201 13.9125C4.81766 14.2188 4.82392 14.4871 4.8161 14.7547C4.80671 15.0798 4.9001 15.3702 5.05975 15.6344C5.49697 16.355 6.15541 16.7551 6.88324 17.1228V17.1233ZM17.269 17.4245C16.8569 18.0224 16.3388 18.4611 15.7341 18.7288C15.3047 18.9191 15.1612 19.1783 15.2186 19.6562C15.2551 19.9591 15.2254 20.2717 15.2254 20.5797C15.2452 20.5956 15.2645 20.6121 15.2843 20.628C15.6668 20.3666 16.0602 20.1222 16.4285 19.8392C17.1897 19.2539 17.425 18.4315 17.269 17.424V17.4245ZM18.6214 13.6204C19.1447 13.3749 19.5923 13.0845 19.9998 12.7123C20.6546 12.1139 20.7772 11.3365 20.6776 10.4829C20.4642 10.7034 20.2722 10.9614 20.0301 11.1398C19.6231 11.4393 19.1843 11.6865 18.7612 11.9604C18.707 11.9957 18.6287 12.0582 18.6276 12.1093C18.6177 12.6026 18.6214 13.0959 18.6214 13.6198V13.6204ZM22.3701 6.97369C22.2376 7.12656 22.1124 7.28568 21.9731 7.42946C21.5332 7.88182 21.012 8.19552 20.4663 8.46773C20.4104 8.49557 20.3306 8.55979 20.3296 8.60923C20.3197 9.10762 20.3233 9.60601 20.3233 10.1271C20.819 9.90323 21.2468 9.62079 21.6438 9.27243C22.3294 8.67004 22.4953 7.88068 22.3706 6.97426L22.3701 6.97369ZM3.10531 17.4024C3.10531 17.7593 3.09018 18.0639 3.10896 18.3662C3.13661 18.8174 3.34374 19.1851 3.62392 19.5039C4.05644 19.996 4.58497 20.3279 5.17401 20.6087C5.17401 20.087 5.17871 19.5994 5.16827 19.1124C5.16723 19.0538 5.09419 18.972 5.03679 18.9436C4.30844 18.5839 3.63383 18.1457 3.10583 17.4024H3.10531ZM6.50289 10.4209C6.50758 11.0154 6.43506 11.5666 6.71472 12.0707C6.9662 12.5242 7.3215 12.8612 7.72742 13.1357C7.9909 13.3141 8.27055 13.4647 8.57055 13.6443C8.57055 13.105 8.5742 12.6242 8.56586 12.1434C8.56481 12.0849 8.51368 11.9979 8.46516 11.9741C7.72324 11.6155 7.04028 11.1694 6.50289 10.4204V10.4209ZM10.2699 10.1322C10.2699 9.6384 10.2652 9.17979 10.2725 8.72175C10.2746 8.58138 10.2281 8.52171 10.1139 8.45181C9.65682 8.17165 9.20238 7.88296 8.76673 7.56585C8.56325 7.41753 8.40359 7.1976 8.20951 6.99529C8.20951 7.22601 8.21785 7.44424 8.20794 7.66132C8.18446 8.16767 8.36551 8.58479 8.66551 8.95191C9.09803 9.48156 9.64847 9.82253 10.2699 10.1328V10.1322ZM16.9283 17.116C17.1245 17.0159 17.3029 16.9364 17.4709 16.8364C17.9718 16.538 18.4252 16.1783 18.7492 15.6503C19.0299 15.194 19.0221 14.6922 18.9845 14.1449C18.4127 14.7729 17.7553 15.1787 17.0499 15.5054C16.9982 15.5293 16.9346 15.6083 16.9336 15.6628C16.9242 16.1357 16.9283 16.609 16.9283 17.116Z" fill="#3E4B4F" style="fill:#3E4B4F;fill:color(display-p3 0.2431 0.2941 0.3098);fill-opacity:1;"/>
<path d="M15.725 8.99857C13.7865 8.99267 12.2296 8.78204 10.7278 8.19498C10.0783 7.94128 9.45516 7.6274 8.91746 7.14654C8.72615 6.97544 8.54404 6.78192 8.39326 6.56834C7.90689 5.88098 7.91014 5.12577 8.39002 4.43488C8.80073 3.84428 9.36329 3.46963 9.96369 3.15634C11.0196 2.60527 12.1432 2.30968 13.2969 2.14861C14.9317 1.92086 16.5642 1.94918 18.1882 2.2731C19.3408 2.5032 20.4611 2.85071 21.4528 3.55636C21.7862 3.79413 22.1023 4.0909 22.3569 4.42426C22.8784 5.10512 22.8584 5.88393 22.3633 6.5884C22.0796 6.99255 21.7159 7.29463 21.3177 7.54833C20.2914 8.20206 19.1701 8.55134 18.0077 8.76493C17.136 8.92541 16.2578 9.0086 15.7244 8.99798L15.725 8.99857Z" fill="#B6E0ED" style="fill:#B6E0ED;fill:color(display-p3 0.7137 0.8784 0.9294);fill-opacity:1;"/>
<path d="M7.62163 7.08447C7.65568 7.45028 7.65622 7.76003 7.71783 8.05444C7.86157 8.74239 8.27931 9.23091 8.77811 9.64097C9.62492 10.3366 10.5966 10.7342 11.6125 11.0151C13.1976 11.4529 14.8074 11.5756 16.4373 11.4664C17.6905 11.3827 18.914 11.1472 20.1196 10.7319C20.0867 10.7661 20.0553 10.8021 20.0207 10.834C19.9845 10.867 19.9462 10.8971 19.9078 10.9266C19.101 11.5426 18.1942 11.906 17.2485 12.1603C15.511 12.627 13.7493 12.7214 11.9719 12.5302C10.6712 12.3898 9.40768 12.0889 8.21716 11.4794C7.71404 11.2222 7.24281 10.9101 6.85047 10.4741C6.08471 9.62327 6.07282 8.6592 6.83642 7.80841C7.06772 7.55058 7.34332 7.33877 7.62163 7.08506V7.08447Z" fill="#B6E0ED" style="fill:#B6E0ED;fill:color(display-p3 0.7137 0.8784 0.9294);fill-opacity:1;"/>
<path d="M5.89504 10.7493C5.90693 11.0413 5.89396 11.3021 5.93233 11.5534C6.03879 12.2544 6.43545 12.76 6.9229 13.1878C7.72486 13.891 8.66139 14.294 9.63953 14.5861C11.318 15.087 13.03 15.2121 14.7621 15.0905C16.0569 14.9997 17.3214 14.7519 18.54 14.2539C18.5568 14.2468 18.5779 14.2533 18.6189 14.2958C18.3314 14.4964 18.0537 14.7171 17.7543 14.8935C16.6935 15.5195 15.5478 15.8558 14.3622 16.0546C13.2257 16.2452 12.0833 16.3118 10.9365 16.2257C9.24287 16.0983 7.59679 15.7454 6.09553 14.8356C5.68969 14.5896 5.30654 14.2633 4.98121 13.9011C4.37001 13.2202 4.36677 12.3983 4.9115 11.6514C5.17792 11.2856 5.50757 11 5.89504 10.7493Z" fill="#B6E0ED" style="fill:#B6E0ED;fill:color(display-p3 0.7137 0.8784 0.9294);fill-opacity:1;"/>
<path d="M4.10836 14.3689C4.13863 14.6987 4.13754 15.0084 4.19915 15.3028C4.34776 16.0156 4.78333 16.5141 5.3032 16.9318C6.17326 17.6322 7.16923 18.0239 8.20627 18.3024C9.80102 18.7308 11.4201 18.8275 13.0554 18.7107C14.2351 18.6263 15.3872 18.3968 16.5091 17.9897C16.5383 17.9791 16.568 17.972 16.6518 17.9466C16.1686 18.3838 15.6709 18.6741 15.1451 18.9036C13.5342 19.6069 11.8508 19.8565 10.1258 19.863C8.64076 19.8683 7.18328 19.6813 5.76579 19.1868C4.99301 18.9172 4.25427 18.565 3.61497 18.0039C3.31775 17.7431 3.06213 17.4428 2.89893 17.061C2.72222 16.6475 2.6979 16.2256 2.85948 15.8002C3.10537 15.1506 3.58146 14.7435 4.10944 14.3677L4.10836 14.3689Z" fill="#B6E0ED" style="fill:#B6E0ED;fill:color(display-p3 0.7137 0.8784 0.9294);fill-opacity:1;"/>
<path d="M9.17911 18.1615C8.45442 17.932 7.7854 17.722 7.11907 17.5037C7.08017 17.4907 7.03693 17.4069 7.03639 17.3556C7.03045 16.834 7.03261 16.313 7.03261 15.759C7.22337 15.8287 7.39036 15.9006 7.56221 15.9508C8.04966 16.0918 8.53981 16.221 9.02725 16.3626C9.084 16.3791 9.17154 16.4452 9.17262 16.49C9.18289 17.0181 9.17911 17.5462 9.17911 18.1615Z" fill="#B6E0ED" style="fill:#B6E0ED;fill:color(display-p3 0.7137 0.8784 0.9294);fill-opacity:1;"/>
<path d="M12.4237 20.0979V21.8184C11.7157 21.8785 11.0148 21.9381 10.2853 22.0001C10.2853 21.4248 10.282 20.8974 10.2923 20.3699C10.2928 20.3321 10.3901 20.2684 10.4452 20.2637C10.9354 20.2236 11.4266 20.1958 11.9173 20.1599C12.0778 20.1481 12.2378 20.1209 12.4231 20.0979H12.4237Z" fill="#B6E0ED" style="fill:#B6E0ED;fill:color(display-p3 0.7137 0.8784 0.9294);fill-opacity:1;"/>
<path d="M9.913 20.2913V21.9976C9.19913 21.9386 8.49822 21.8808 7.7865 21.8224V20.1226C8.48903 20.1786 9.1894 20.2341 9.913 20.2913Z" fill="#B6E0ED" style="fill:#B6E0ED;fill:color(display-p3 0.7137 0.8784 0.9294);fill-opacity:1;"/>
<path d="M15.9352 14.5678C15.2257 14.6286 14.5296 14.6887 13.8163 14.7495V13.0414C14.5172 12.986 15.2192 12.9305 15.9352 12.8733V14.5672V14.5678Z" fill="#B6E0ED" style="fill:#B6E0ED;fill:color(display-p3 0.7137 0.8784 0.9294);fill-opacity:1;"/>
<path d="M13.4224 14.7494C12.7075 14.6875 12.0076 14.6273 11.3008 14.5659V12.8738C12.0055 12.9298 12.7058 12.9853 13.4224 13.0425V14.7494Z" fill="#B6E0ED" style="fill:#B6E0ED;fill:color(display-p3 0.7137 0.8784 0.9294);fill-opacity:1;"/>
<path d="M9.55237 18.1919V16.4868C10.2608 16.5523 10.9618 16.6166 11.6773 16.6827V18.3713C10.9688 18.3117 10.2635 18.2521 9.55237 18.1919Z" fill="#B6E0ED" style="fill:#B6E0ED;fill:color(display-p3 0.7137 0.8784 0.9294);fill-opacity:1;"/>
<path d="M17.7003 10.9404C16.9907 11 16.3006 11.0578 15.5884 11.1174V9.41992C16.2823 9.36387 16.9837 9.30782 17.7003 9.25V10.9404Z" fill="#B6E0ED" style="fill:#B6E0ED;fill:color(display-p3 0.7137 0.8784 0.9294);fill-opacity:1;"/>
<path d="M15.1911 11.1161C14.481 11.0577 13.7855 11.0004 13.0743 10.942V9.25049C13.7752 9.30654 14.4767 9.36259 15.1911 9.41982V11.1161Z" fill="#B6E0ED" style="fill:#B6E0ED;fill:color(display-p3 0.7137 0.8784 0.9294);fill-opacity:1;"/>
<path d="M7.40007 20.0648V21.7368C7.04448 21.6501 6.70294 21.5781 6.36735 21.4808C6.04257 21.3864 5.72264 21.2719 5.40489 21.1515C5.34652 21.1291 5.27032 21.0394 5.26924 20.9793C5.25843 20.4725 5.2633 19.9656 5.2633 19.4612C5.98042 19.6636 6.68619 19.863 7.40007 20.0642V20.0648Z" fill="#B6E0ED" style="fill:#B6E0ED;fill:color(display-p3 0.7137 0.8784 0.9294);fill-opacity:1;"/>
<path d="M12.8062 21.6991V20.0624C13.5104 19.8636 14.2107 19.6665 14.9468 19.4583C14.9468 19.5639 14.9468 19.6766 14.9468 19.7887C14.9468 20.1716 14.9527 20.5539 14.9424 20.9362C14.9408 21.0047 14.8852 21.1156 14.8349 21.1309C14.1886 21.3309 13.5385 21.5168 12.8894 21.7056C12.8716 21.7109 12.8505 21.7026 12.8057 21.6985L12.8062 21.6991Z" fill="#B6E0ED" style="fill:#B6E0ED;fill:color(display-p3 0.7137 0.8784 0.9294);fill-opacity:1;"/>
<path d="M16.3232 14.4463V12.8155C17.0285 12.6173 17.7234 12.4214 18.4384 12.2202C18.4427 12.2385 18.4611 12.2816 18.4616 12.3252C18.4638 12.7807 18.4676 13.2362 18.4579 13.6917C18.4562 13.7589 18.3989 13.8687 18.3487 13.884C17.698 14.084 17.0441 14.2711 16.3908 14.4599C16.3735 14.4646 16.3524 14.4522 16.3238 14.4457L16.3232 14.4463Z" fill="#B6E0ED" style="fill:#B6E0ED;fill:color(display-p3 0.7137 0.8784 0.9294);fill-opacity:1;"/>
<path d="M12.061 18.3727V16.6806C12.7684 16.6234 13.4688 16.5667 14.1843 16.5083V18.1869C13.4899 18.2476 12.7857 18.309 12.061 18.3721V18.3727Z" fill="#B6E0ED" style="fill:#B6E0ED;fill:color(display-p3 0.7137 0.8784 0.9294);fill-opacity:1;"/>
<path d="M10.9175 12.8159V14.4839C10.5771 14.4007 10.2496 14.3334 9.92857 14.2384C9.5865 14.1375 9.24928 14.0142 8.91261 13.8915C8.86073 13.8726 8.78777 13.8048 8.78669 13.7588C8.77751 13.2396 8.78129 12.7204 8.78129 12.2112C9.49625 12.4136 10.1966 12.6118 10.9175 12.8159Z" fill="#B6E0ED" style="fill:#B6E0ED;fill:color(display-p3 0.7137 0.8784 0.9294);fill-opacity:1;"/>
<path d="M18.0909 10.8971V9.19143C18.7956 8.992 19.5003 8.79199 20.2256 8.58667C20.2256 9.09171 20.2283 9.60915 20.2212 10.1266C20.2207 10.172 20.1629 10.2434 20.1191 10.2576C19.4533 10.4723 18.7854 10.6794 18.0915 10.8971H18.0909Z" fill="#B6E0ED" style="fill:#B6E0ED;fill:color(display-p3 0.7137 0.8784 0.9294);fill-opacity:1;"/>
<path d="M12.6922 10.9032C11.98 10.6796 11.3126 10.4713 10.6468 10.2571C10.6057 10.2441 10.5495 10.181 10.549 10.1409C10.5425 9.62109 10.5447 9.10189 10.5447 8.55908C10.8062 8.64817 11.0397 8.7408 11.2791 8.80629C11.6957 8.92075 12.1178 9.01457 12.535 9.12844C12.595 9.14496 12.6852 9.22284 12.6863 9.27417C12.6976 9.78747 12.6933 10.3014 12.6933 10.9032H12.6922Z" fill="#B6E0ED" style="fill:#B6E0ED;fill:color(display-p3 0.7137 0.8784 0.9294);fill-opacity:1;"/>
<path d="M14.5718 18.1385V16.4541C15.283 16.2605 15.9844 16.07 16.7102 15.8723C16.7102 16.257 16.7102 16.6558 16.7102 17.0553C16.7102 17.473 16.7134 17.4854 16.3454 17.6034C15.7677 17.7881 15.1851 17.9544 14.5718 18.1379V18.1385Z" fill="#B6E0ED" style="fill:#B6E0ED;fill:color(display-p3 0.7137 0.8784 0.9294);fill-opacity:1;"/>
<path d="M6.66943 17.31C5.91556 16.9283 5.23356 16.5129 4.7807 15.7648C4.6148 15.491 4.51806 15.1889 4.52833 14.8514C4.53644 14.5735 4.52995 14.2951 4.57589 13.9771C4.60237 14.0237 4.6229 14.0756 4.65533 14.1163C5.14656 14.737 5.77343 15.1482 6.44894 15.478C6.60944 15.5559 6.68348 15.642 6.67537 15.8503C6.657 16.32 6.66943 16.7914 6.66943 17.3106V17.31Z" fill="#B6E0ED" style="fill:#B6E0ED;fill:color(display-p3 0.7137 0.8784 0.9294);fill-opacity:1;"/>
<path d="M17.4267 17.6228C17.5883 18.6683 17.3446 19.5226 16.5561 20.1303C16.1746 20.4241 15.7666 20.6773 15.371 20.9493C15.3505 20.9327 15.3305 20.9156 15.3099 20.8991C15.3099 20.5793 15.3407 20.2548 15.3029 19.9403C15.2435 19.4441 15.3921 19.1751 15.8368 18.9775C16.4626 18.6996 16.9998 18.2441 17.4267 17.6234V17.6228Z" fill="#B6E0ED" style="fill:#B6E0ED;fill:color(display-p3 0.7137 0.8784 0.9294);fill-opacity:1;"/>
<path d="M18.8276 13.6733C18.8276 13.1293 18.8233 12.6166 18.8341 12.1051C18.8352 12.052 18.9163 11.9871 18.9725 11.9505C19.4107 11.6661 19.8658 11.4095 20.2867 11.0985C20.5375 10.9133 20.7369 10.6454 20.9574 10.4165C21.0606 11.3027 20.9336 12.1098 20.2554 12.7311C19.8339 13.1175 19.3702 13.419 18.8276 13.6739V13.6733Z" fill="#B6E0ED" style="fill:#B6E0ED;fill:color(display-p3 0.7137 0.8784 0.9294);fill-opacity:1;"/>
<path d="M22.7103 6.77256C22.84 7.71362 22.6681 8.53314 21.9575 9.15854C21.5468 9.52022 21.1036 9.81345 20.5897 10.0459C20.5897 9.50547 20.5854 8.98744 20.5962 8.47001C20.5973 8.41927 20.68 8.35201 20.7378 8.3231C21.3031 8.04048 21.8429 7.7148 22.2985 7.24516C22.4428 7.09648 22.573 6.93068 22.7097 6.77197L22.7103 6.77256Z" fill="#B6E0ED" style="fill:#B6E0ED;fill:color(display-p3 0.7137 0.8784 0.9294);fill-opacity:1;"/>
<path d="M2.75627 17.5999C3.3037 18.3716 4.00191 18.8271 4.75632 19.1999C4.81576 19.2294 4.89142 19.3144 4.8925 19.3752C4.90331 19.8808 4.89845 20.3876 4.89845 20.9287C4.28833 20.6366 3.74089 20.292 3.2929 19.7817C3.0027 19.4507 2.78815 19.069 2.75951 18.6005C2.7406 18.2866 2.75573 17.9704 2.75573 17.5999H2.75627Z" fill="#B6E0ED" style="fill:#B6E0ED;fill:color(display-p3 0.7137 0.8784 0.9294);fill-opacity:1;"/>
<path d="M6.27548 10.3516C6.8321 11.1292 7.53949 11.5923 8.30795 11.9646C8.35821 11.9888 8.41117 12.0797 8.41225 12.1405C8.42089 12.6396 8.41711 13.1387 8.41711 13.6987C8.10638 13.5122 7.81672 13.3559 7.54381 13.1706C7.12338 12.8856 6.75536 12.5358 6.49488 12.0649C6.20522 11.5416 6.28034 10.9693 6.27548 10.3522V10.3516Z" fill="#B6E0ED" style="fill:#B6E0ED;fill:color(display-p3 0.7137 0.8784 0.9294);fill-opacity:1;"/>
<path d="M10.1772 10.0519C9.53415 9.72971 8.96402 9.37571 8.51548 8.82582C8.20474 8.44468 8.01722 8.01161 8.04154 7.48592C8.05181 7.26054 8.04316 7.03398 8.04316 6.79443C8.24365 7.00448 8.40902 7.23281 8.62032 7.3868C9.0721 7.71602 9.54225 8.01574 10.0156 8.30662C10.134 8.37919 10.1821 8.44173 10.1799 8.58687C10.1724 9.06241 10.1772 9.53855 10.1772 10.0513V10.0519Z" fill="#B6E0ED" style="fill:#B6E0ED;fill:color(display-p3 0.7137 0.8784 0.9294);fill-opacity:1;"/>
<path d="M17.0739 17.3023C17.0739 16.7754 17.0701 16.2846 17.0793 15.7937C17.0804 15.737 17.1463 15.655 17.1998 15.6302C17.9299 15.291 18.6114 14.8697 19.2036 14.2178C19.2425 14.7865 19.2501 15.3069 18.9599 15.7807C18.6243 16.3288 18.1547 16.7023 17.6359 17.012C17.4619 17.1159 17.2771 17.1985 17.0739 17.3023Z" fill="#B6E0ED" style="fill:#B6E0ED;fill:color(display-p3 0.7137 0.8784 0.9294);fill-opacity:1;"/>
</svg>
