<svg width="18" height="24" viewBox="0 0 18 24" fill="none" xmlns="http://www.w3.org/2000/svg">
<g clip-path="url(#clip0_1656_128569)">
<path d="M16.8696 0.520459C16.5236 0.465874 16.1943 0.333856 15.8811 0.172007C15.8445 0.152966 15.8098 0.131386 15.7771 0.107902C15.6584 0.139637 15.5358 0.156139 15.4131 0.156139C15.279 0.156139 15.1532 0.132655 15.0351 0.0920344C14.9189 0.1225 14.7989 0.138368 14.6788 0.138368C14.5357 0.138368 14.4002 0.112345 14.2757 0.0660116C14.1794 0.0641075 14.087 0.0495093 13.9991 0.0253906C13.8822 0.0526828 13.7616 0.067281 13.6409 0.067281C13.6203 0.067281 13.5998 0.067281 13.5786 0.0679157C13.5555 0.073628 13.5318 0.079975 13.5087 0.0875915C13.4894 0.0939385 13.4701 0.0996508 13.4509 0.104728C13.6884 0.125039 13.9252 0.148523 14.1621 0.173276C14.3271 0.190413 14.5286 0.352897 14.6211 0.51665C14.7526 0.750221 14.8406 1.03965 14.8727 1.31701C14.9157 1.69466 14.8906 2.0831 14.8913 2.46646C14.8919 4.59715 14.8913 6.72785 14.8913 8.85855C14.8913 11.2869 14.924 13.7159 14.8759 16.143C14.856 17.1624 14.8528 18.1747 14.9208 19.1902C14.9638 19.83 14.9921 20.4723 14.9934 21.1134C14.9946 21.6383 14.9292 22.16 14.7302 22.6456C14.4741 23.2701 14.0267 23.5881 13.438 23.6014C11.5541 23.6433 9.67012 23.6725 7.78616 23.6877C6.98123 23.6941 6.17822 23.6611 5.37842 23.5652C5.4471 23.5944 5.51129 23.6312 5.57291 23.6725C5.62362 23.6795 5.67241 23.6909 5.71991 23.7042C5.83352 23.7099 5.942 23.7315 6.04342 23.7664C6.05818 23.7664 6.07295 23.7652 6.08707 23.7652C6.23406 23.7652 6.37207 23.7925 6.49981 23.8407H16.7021C16.7675 23.7861 16.8375 23.7391 16.9107 23.7011C16.9242 23.6941 16.937 23.6858 16.9505 23.6782C17.0737 23.5836 17.1963 23.4897 17.3292 23.4034C17.3806 23.22 17.4749 23.046 17.5596 22.8772C17.6065 22.7846 17.6598 22.6951 17.7124 22.6056C17.7535 22.5364 17.8023 22.4735 17.8556 22.4164V1.44078C17.3972 1.33288 16.9954 0.969828 16.869 0.520459H16.8696Z" fill="#81AADD" style="fill:#81AADD;fill:color(display-p3 0.5059 0.6667 0.8667);fill-opacity:1;"/>
<path d="M17.8808 8.97704C17.8808 11.4371 17.9187 13.8979 17.8629 16.3567C17.8398 17.3894 17.8366 18.4144 17.9155 19.4433C17.9656 20.0913 17.9983 20.7419 18.0002 21.3918C18.0015 21.9237 17.9258 22.4518 17.6941 22.9437C17.3962 23.5758 16.8756 23.8989 16.1901 23.9116C13.9974 23.9541 11.804 23.9833 9.61068 23.9992C8.28132 24.0087 6.95452 23.9401 5.63992 23.7205C5.44414 23.6875 5.28495 23.6215 5.14053 23.4774C3.56404 21.9091 1.98112 20.3471 0.402707 18.7807C0.124125 18.5046 0.0528746 18.139 0.050307 17.7715C0.0451719 17.0739 0.0798341 16.3764 0.080476 15.6782C0.0843274 12.433 0.0438881 9.18649 0.1023 5.94189C0.122841 4.73977 -0.0125986 3.55033 0.00152304 2.35392C0.00537441 2.04673 0.0336178 1.73445 0.0939558 1.4336C0.279463 0.506938 0.902743 0.0163126 1.85788 0.0144085C3.69948 0.00996559 5.54107 -0.000189649 7.38267 -0.000189649C9.68835 -0.000189649 11.9947 -0.00463256 14.2997 0.0207555C15.2112 0.0309108 16.1233 0.0962851 17.0316 0.178796C17.2235 0.196568 17.4585 0.360956 17.5657 0.526613C17.7191 0.763357 17.8218 1.05659 17.8584 1.33713C17.9084 1.71985 17.8796 2.11273 17.8796 2.50181C17.8802 4.66043 17.8796 6.81842 17.8796 8.97704H17.8808ZM17.2999 12.0071C17.2999 12.0071 17.2993 12.0071 17.2986 12.0071C17.2986 11.7132 17.2986 11.42 17.2986 11.1261C17.2986 7.96786 17.2929 4.80895 17.3031 1.65067C17.3044 1.16957 17.1189 0.814768 16.6831 0.65165C16.2543 0.490435 15.7998 0.364129 15.346 0.304467C13.9569 0.122943 12.564 0.260038 11.1724 0.316527C10.1415 0.358417 9.10936 0.369207 8.07784 0.389518C7.94304 0.392056 7.80824 0.362225 7.67344 0.362225C7.04246 0.362225 6.41084 0.385709 5.7805 0.369207C4.78043 0.34255 3.781 0.269559 2.78157 0.259404C2.23981 0.253691 1.69099 0.317162 1.19737 0.582467C0.866155 0.760184 0.671019 1.01406 0.671661 1.41837C0.676154 3.48179 0.662032 5.5452 0.660748 7.60799C0.659465 10.2109 0.667809 12.8138 0.662674 15.4167C0.66139 16.1536 0.610681 16.8905 0.614532 17.6268C0.617742 18.2538 0.965006 18.6474 1.58893 18.6804C2.37846 18.7216 3.17184 18.7032 3.96329 18.6943C4.87478 18.6835 5.43452 19.1082 5.55134 20.0025C5.61938 20.5248 5.58857 21.0605 5.59692 21.5905C5.60398 22.0494 5.57252 22.5114 5.61746 22.9659C5.65854 23.3791 5.94418 23.5873 6.3627 23.5873C9.69413 23.5873 13.0256 23.5853 16.357 23.5822C16.7704 23.5822 17.0701 23.3861 17.1915 22.9925C17.2646 22.7545 17.2948 22.4949 17.2954 22.2449C17.3019 18.8321 17.2999 15.4199 17.2999 12.0071ZM1.49072 19.0009C2.69042 20.191 3.84326 21.3347 4.98647 22.4695C4.98647 21.8025 5.02049 21.1043 4.97749 20.4106C4.92549 19.5709 4.56603 19.2084 3.73542 19.0561C3.53258 19.0187 3.32268 19.006 3.11599 19.0034C2.57488 18.9965 2.03312 19.0009 1.49072 19.0009Z" fill="#152226" style="fill:#152226;fill:color(display-p3 0.0824 0.1333 0.1490);fill-opacity:1;"/>
<path d="M17.2997 12.0074C17.2997 15.4202 17.3017 18.8323 17.2953 22.2451C17.2953 22.4952 17.2651 22.7548 17.1913 22.9928C17.0699 23.3863 16.7702 23.5818 16.3568 23.5824C13.0254 23.5856 9.69394 23.5875 6.36251 23.5875C5.94399 23.5875 5.65835 23.3787 5.61727 22.9661C5.57234 22.5111 5.60379 22.0496 5.59673 21.5907C5.58838 21.0608 5.61919 20.5257 5.55115 20.0027C5.43497 19.1078 4.8746 18.6838 3.96311 18.6946C3.17165 18.7035 2.37827 18.7219 1.58874 18.6806C0.964177 18.6483 0.617554 18.2541 0.614344 17.627C0.610493 16.8901 0.661203 16.1539 0.662487 15.417C0.667622 12.8141 0.658635 10.2112 0.660561 7.60825C0.661845 5.54483 0.675324 3.48141 0.671473 1.41863C0.670831 1.01432 0.865967 0.760441 1.19718 0.582725C1.6908 0.318054 2.23962 0.254584 2.78138 0.259661C3.78145 0.269816 4.78024 0.342807 5.78031 0.369465C6.41065 0.385967 7.04227 0.363118 7.67326 0.362483C7.80805 0.362483 7.94349 0.392314 8.07765 0.389775C9.10917 0.369465 10.1413 0.358675 11.1722 0.316784C12.5638 0.260296 13.9561 0.1232 15.3458 0.304725C15.7996 0.363752 16.2535 0.490693 16.6829 0.651907C17.1187 0.815661 17.3042 1.16982 17.303 1.65093C17.2927 4.80921 17.2985 7.96812 17.2985 11.1264C17.2985 11.4203 17.2985 11.7135 17.2985 12.0074C17.2985 12.0074 17.2991 12.0074 17.2997 12.0074ZM14.8869 8.47969C15.53 7.216 15.6462 6.65746 15.4633 5.59751C15.3606 5.00279 15.1411 4.4506 14.745 3.98473C13.7385 2.80228 11.8809 2.99269 11.1254 4.37761C10.513 5.49976 10.4629 6.68793 10.9257 7.87228C11.4155 9.12455 12.6229 9.61835 13.8926 9.12582C14.0839 9.05156 14.2642 8.95127 14.4337 8.87067C14.6025 8.99824 14.7469 9.14486 14.9215 9.22737C15.0306 9.27815 15.186 9.23181 15.3208 9.22927C15.3009 9.09853 15.3169 8.94556 15.2515 8.84274C15.1603 8.69993 15.0082 8.59584 14.8869 8.47969ZM5.48761 9.16517C5.6943 9.22737 5.89585 9.16898 6.03578 8.92779C6.16224 8.71072 6.2566 8.47144 6.33619 8.23279C6.47163 7.82722 6.58396 7.41403 6.70592 7.00337C6.75085 6.85231 6.84457 6.79773 7.00761 6.8009C7.48005 6.81106 7.95248 6.81106 8.42491 6.8009C8.58795 6.7971 8.66434 6.84787 8.71826 7.00337C8.95448 7.68504 9.20931 8.361 9.44745 9.04204C9.4988 9.18802 9.59252 9.27624 9.72411 9.23118C9.81333 9.20071 9.90833 9.08202 9.92951 8.98682C9.95904 8.8529 9.95262 8.69549 9.90962 8.56411C9.63424 7.72122 9.35951 6.87707 9.05525 6.0437C8.74779 5.20209 8.40181 4.37444 8.08214 3.53726C8.00255 3.32972 7.90305 3.26434 7.73231 3.4135C7.56221 3.56202 7.39082 3.74164 7.30224 3.94284C7.0243 4.5731 6.75856 5.21161 6.53774 5.86345C6.1693 6.95133 5.83872 8.05254 5.48696 9.16327L5.48761 9.16517ZM15.8581 10.9976C15.6892 10.9861 15.5737 10.9715 15.4588 10.9715C11.9695 10.9703 8.48012 10.9703 4.99078 10.9703C4.20638 10.9703 3.42199 10.969 2.63824 10.9709C2.3481 10.9715 2.20496 11.0699 2.16195 11.3048C2.24797 11.3149 2.33205 11.3333 2.41678 11.3333C5.78609 11.3352 9.15539 11.3359 12.5247 11.3365C13.4452 11.3365 14.3656 11.3365 15.2855 11.3365C15.5121 11.3365 15.7053 11.28 15.8587 10.9969L15.8581 10.9976ZM3.14084 5.7162V3.63691C4.07608 3.59947 5.00362 3.72767 5.90612 3.43762C5.80213 3.36272 5.6943 3.30623 5.58453 3.30179C4.79436 3.27132 4.00355 3.23578 3.21273 3.23451C2.77624 3.23324 2.65942 3.35447 2.55607 3.7721C2.52398 3.90222 2.49509 4.03804 2.49574 4.1707C2.4983 4.9152 2.51371 5.66034 2.51756 6.40485C2.52077 7.14872 2.51243 7.89323 2.51628 8.6371C2.51692 8.7945 2.52847 8.95635 2.56827 9.10741C2.63888 9.37526 2.80256 9.41715 2.99834 9.21658C3.06702 9.14613 3.11645 9.02617 3.11773 8.92843C3.12672 8.19852 3.12094 7.46861 3.11966 6.7387C3.11966 6.50386 3.11966 6.26966 3.11966 6.03101C3.67746 5.99991 4.20703 6.09258 4.69936 5.85266C4.19932 5.62417 3.67104 5.71429 3.14148 5.71556L3.14084 5.7162ZM15.8439 16.7181C15.7059 16.7067 15.6141 16.6921 15.5223 16.6921C13.6807 16.6896 11.8391 16.6877 9.99755 16.687C7.65978 16.6864 5.32135 16.6839 2.98358 16.6896C2.76212 16.6896 2.53939 16.7365 2.31922 16.7727C2.27621 16.7797 2.24155 16.8375 2.20303 16.8717C2.24411 16.9143 2.27813 16.972 2.32884 16.9955C2.37506 17.0171 2.43861 17.0044 2.49445 17.0044C4.76034 17.005 7.02623 17.0056 9.29211 17.0063C11.2942 17.0063 13.2956 17.0063 15.2977 17.0063C15.5057 17.0063 15.6886 16.9599 15.8439 16.7181ZM15.8382 13.8689C15.7175 13.8569 15.6404 13.8429 15.5634 13.8423C15.2431 13.8398 14.9228 13.8404 14.6025 13.8404C11.1915 13.8404 7.78045 13.8391 4.36943 13.8417C3.76155 13.8417 3.15304 13.8531 2.5458 13.8785C2.42898 13.8835 2.21395 13.9914 2.21908 14.027C2.24604 14.2161 2.42513 14.1514 2.54901 14.1514C5.25524 14.1546 7.96147 14.1539 10.6683 14.1539C12.2057 14.1539 13.743 14.1533 15.2803 14.1546C15.4954 14.1546 15.6899 14.1216 15.8382 13.8689ZM7.10903 19.7304C7.19119 19.7469 7.27336 19.7755 7.35616 19.7774C8.52312 19.8098 9.69009 19.858 10.8577 19.8599C11.4713 19.8612 12.0856 19.7818 12.6993 19.7323C12.7744 19.726 12.8469 19.6809 12.9207 19.6536C12.915 19.6187 12.9092 19.5844 12.9034 19.5495C10.9752 19.6714 9.03921 19.2976 7.10967 19.7298L7.10903 19.7304Z" fill="#81AADD" style="fill:#81AADD;fill:color(display-p3 0.5059 0.6667 0.8667);fill-opacity:1;"/>
<path d="M1.49048 19.0011C2.03352 19.0011 2.57464 18.9967 3.11575 19.0037C3.32244 19.0062 3.53234 19.0189 3.73518 19.0564C4.56579 19.2087 4.92525 19.5705 4.97725 20.4108C5.02026 21.1046 4.98623 21.8027 4.98623 22.4698C3.84302 21.3356 2.69018 20.1919 1.49048 19.0011Z" fill="#81AADD" style="fill:#81AADD;fill:color(display-p3 0.5059 0.6667 0.8667);fill-opacity:1;"/>
<path d="M14.8868 8.47973C15.0081 8.59588 15.1602 8.69997 15.2514 8.84278C15.3168 8.94497 15.3008 9.09857 15.3207 9.22932C15.1859 9.23185 15.0306 9.27819 14.9214 9.22741C14.7462 9.14553 14.6018 8.99892 14.4336 8.87071C14.2648 8.95131 14.0838 9.05223 13.8925 9.12586C12.6228 9.61839 11.4148 9.12459 10.9256 7.87232C10.4628 6.68797 10.5129 5.4998 11.1253 4.37765C11.8808 2.99273 13.7384 2.80232 14.7449 3.98477C15.141 4.45001 15.3605 5.00283 15.4632 5.59755C15.6468 6.6575 15.5306 7.21604 14.8868 8.47973ZM14.5093 8.11097C14.5408 8.10843 14.5722 8.10589 14.6037 8.10335C14.7103 7.62606 14.8585 7.15384 14.9131 6.67083C15.0171 5.75686 14.8515 4.8962 14.1987 4.18914C13.3064 3.22313 12.0027 3.47066 11.5354 4.69119C11.4905 4.80925 11.4494 4.93175 11.4282 5.05551C11.3782 5.3443 11.3371 5.63436 11.3005 5.92505C11.1875 6.82189 11.357 7.65081 11.945 8.36168C12.5259 9.06429 13.4188 9.13728 14.1884 8.52162C13.8983 8.25251 13.6165 7.98403 13.3263 7.72444C13.2127 7.62225 13.2057 7.50546 13.3026 7.41787C13.3706 7.35631 13.5176 7.30299 13.5857 7.33536C13.7622 7.41978 13.9246 7.54164 14.0748 7.67049C14.2308 7.80441 14.3649 7.96308 14.5087 8.11033L14.5093 8.11097Z" fill="#152226" style="fill:#152226;fill:color(display-p3 0.0824 0.1333 0.1490);fill-opacity:1;"/>
<path d="M5.48755 9.16487C5.83931 8.05351 6.16924 6.95294 6.53833 5.86506C6.75914 5.21322 7.02553 4.57471 7.30283 3.94445C7.39141 3.74325 7.56279 3.56363 7.73289 3.4151C7.90364 3.26595 8.00313 3.33132 8.08273 3.53887C8.40239 4.37604 8.74837 5.2037 9.05584 6.04531C9.3601 6.87867 9.63483 7.7222 9.9102 8.56571C9.95321 8.69646 9.95963 8.8545 9.9301 8.98843C9.90892 9.08363 9.81392 9.20232 9.72469 9.23279C9.59246 9.27785 9.49875 9.18963 9.44804 9.04364C9.20989 8.36197 8.95506 7.68665 8.71884 7.00498C8.66493 6.84948 8.58854 6.7987 8.4255 6.80251C7.95306 6.81267 7.48063 6.81267 7.0082 6.80251C6.84516 6.7987 6.7508 6.85392 6.70651 7.00498C6.58519 7.415 6.47221 7.82819 6.33678 8.2344C6.25718 8.47305 6.16218 8.71233 6.03637 8.9294C5.89644 9.16995 5.69488 9.22834 5.48819 9.16678L5.48755 9.16487ZM7.75279 4.3405C7.73418 4.3405 7.71492 4.34177 7.69631 4.34177C7.43441 5.06914 7.17316 5.79651 6.90357 6.54546H8.5481C8.27722 5.79333 8.01533 5.0666 7.75344 4.33987L7.75279 4.3405Z" fill="#152226" style="fill:#152226;fill:color(display-p3 0.0824 0.1333 0.1490);fill-opacity:1;"/>
<path d="M15.858 10.9975C15.7052 11.2806 15.512 11.3371 15.2848 11.3371C14.3643 11.3365 13.4438 11.3371 12.524 11.3371C9.15469 11.3371 5.78539 11.3365 2.41609 11.3339C2.33136 11.3339 2.24727 11.3155 2.16125 11.3054C2.20426 11.0705 2.3474 10.9721 2.63754 10.9715C3.42194 10.9696 4.20633 10.9709 4.99008 10.9709C8.47942 10.9709 11.9688 10.9709 15.4581 10.9721C15.573 10.9721 15.6885 10.9867 15.8574 10.9982L15.858 10.9975Z" fill="#152226" style="fill:#152226;fill:color(display-p3 0.0824 0.1333 0.1490);fill-opacity:1;"/>
<path d="M3.14074 5.71592C3.67095 5.71466 4.19858 5.62453 4.69862 5.85302C4.20693 6.09294 3.67672 6.00027 3.11892 6.03137C3.11892 6.26939 3.11892 6.50423 3.11892 6.73906C3.1202 7.46897 3.12598 8.19888 3.11699 8.92879C3.11571 9.02653 3.06628 9.14649 2.9976 9.21694C2.80182 9.41814 2.6375 9.37562 2.56753 9.10777C2.52773 8.95671 2.51618 8.79487 2.51554 8.63746C2.51168 7.89359 2.52003 7.14908 2.51682 6.40521C2.51361 5.66071 2.49756 4.91557 2.495 4.17106C2.495 4.03777 2.52324 3.90258 2.55533 3.77247C2.65932 3.35483 2.7755 3.2336 3.21199 3.23487C4.0028 3.23678 4.79362 3.27169 5.58379 3.30215C5.69355 3.30659 5.80075 3.36308 5.90538 3.43798C5.00288 3.72804 4.07534 3.59983 3.1401 3.63727V5.71656L3.14074 5.71592Z" fill="#152226" style="fill:#152226;fill:color(display-p3 0.0824 0.1333 0.1490);fill-opacity:1;"/>
<path d="M15.8439 16.718C15.6886 16.9598 15.505 17.0062 15.2976 17.0062C13.2956 17.0062 11.2942 17.0062 9.29208 17.0062C7.0262 17.0062 4.76031 17.0049 2.49442 17.0043C2.43858 17.0043 2.37503 17.0176 2.32881 16.9954C2.27875 16.9719 2.24473 16.9141 2.203 16.8716C2.24152 16.8373 2.27618 16.7796 2.31919 16.7726C2.53936 16.7364 2.76209 16.6901 2.98355 16.6894C5.32133 16.6837 7.65975 16.6863 9.99753 16.6869C11.8391 16.6875 13.6807 16.6888 15.5223 16.692C15.6141 16.692 15.7059 16.7066 15.8439 16.718Z" fill="#152226" style="fill:#152226;fill:color(display-p3 0.0824 0.1333 0.1490);fill-opacity:1;"/>
<path d="M15.8382 13.869C15.6899 14.1216 15.4954 14.1546 15.2803 14.1546C13.743 14.1533 12.2057 14.154 10.6683 14.154C7.96211 14.154 5.25589 14.1546 2.54902 14.1514C2.42513 14.1514 2.24604 14.2162 2.21908 14.027C2.21395 13.9915 2.42963 13.8829 2.54581 13.8785C3.15304 13.8531 3.76156 13.8423 4.36943 13.8417C7.78046 13.8385 11.1915 13.8404 14.6025 13.8404C14.9228 13.8404 15.2431 13.8398 15.5634 13.8423C15.6405 13.8429 15.7175 13.8569 15.8382 13.869Z" fill="#152226" style="fill:#152226;fill:color(display-p3 0.0824 0.1333 0.1490);fill-opacity:1;"/>
<path d="M7.10892 19.7303C9.03909 19.2981 10.9744 19.6726 12.9027 19.5501C12.9084 19.585 12.9142 19.6193 12.92 19.6542C12.8462 19.6815 12.7743 19.7265 12.6985 19.7329C12.0849 19.7824 11.4712 19.8617 10.8569 19.8604C9.68997 19.8585 8.52237 19.8103 7.35541 19.7779C7.2726 19.7754 7.19044 19.7468 7.10828 19.731L7.10892 19.7303Z" fill="#152226" style="fill:#152226;fill:color(display-p3 0.0824 0.1333 0.1490);fill-opacity:1;"/>
<path d="M14.5094 8.11074C14.3656 7.96286 14.2314 7.80418 14.0755 7.67089C13.9259 7.54268 13.7635 7.42019 13.5863 7.33577C13.5183 7.3034 13.3713 7.35672 13.3033 7.41828C13.2063 7.50524 13.2134 7.62202 13.327 7.72484C13.6165 7.98507 13.8989 8.25292 14.1891 8.52203C13.4194 9.13833 12.5266 9.0647 11.9456 8.36209C11.3577 7.65122 11.1882 6.8223 11.3012 5.92546C11.3378 5.63477 11.3789 5.34471 11.4289 5.05592C11.4501 4.93215 11.4905 4.80966 11.5361 4.6916C12.0034 3.47107 13.3071 3.22354 14.1993 4.18955C14.8521 4.89661 15.0178 5.75727 14.9138 6.67124C14.8592 7.15425 14.7103 7.62647 14.6044 8.10376C14.5729 8.1063 14.5415 8.10884 14.51 8.11138L14.5094 8.11074Z" fill="#81AADD" style="fill:#81AADD;fill:color(display-p3 0.5059 0.6667 0.8667);fill-opacity:1;"/>
<path d="M7.75282 4.34082C8.01471 5.06755 8.27661 5.79365 8.54749 6.54641H6.90295C7.17255 5.79746 7.43444 5.07009 7.69569 4.34272C7.71431 4.34272 7.73357 4.34146 7.75218 4.34146L7.75282 4.34082Z" fill="#81AADD" style="fill:#81AADD;fill:color(display-p3 0.5059 0.6667 0.8667);fill-opacity:1;"/>
</g>
<defs>
<clipPath id="clip0_1656_128569">
<rect width="18" height="24" fill="white" style="fill:white;fill-opacity:1;"/>
</clipPath>
</defs>
</svg>
