<svg width="25" height="24" viewBox="0 0 25 24" fill="none" xmlns="http://www.w3.org/2000/svg">
<path d="M2.25 18.4395C2.31785 18.1097 2.36431 17.7737 2.45722 17.4506C3.03972 15.424 4.81123 13.9393 6.94394 13.6802C7.10522 13.6607 7.26755 13.6443 7.42987 13.6443C8.97904 13.6418 10.5282 13.6213 12.0768 13.6474C14.8797 13.695 17.205 16.0048 17.2515 18.755C17.2734 20.0697 16.349 20.9966 15.006 20.9977C11.5043 20.9997 8.00298 20.9987 4.50119 20.9977C4.39732 20.9977 4.29293 20.9915 4.18958 20.9813C3.21666 20.885 2.464 20.2008 2.28497 19.2538C2.27923 19.2241 2.262 19.1965 2.25 19.1678C2.25 18.925 2.25 18.6823 2.25 18.4395Z" fill="#B6E0ED" style="fill:#B6E0ED;fill:color(display-p3 0.7137 0.8784 0.9294);fill-opacity:1;"/>
<path d="M9.75719 12.8132C6.9997 12.8178 4.75948 10.6304 4.75112 7.92477C4.74225 5.21452 6.98144 3.00667 9.74571 3.00002C12.4954 2.99336 14.745 5.19301 14.7523 7.89455C14.7596 10.6099 12.5272 12.808 9.75719 12.8132Z" fill="#B6E0ED" style="fill:#B6E0ED;fill:color(display-p3 0.7137 0.8784 0.9294);fill-opacity:1;"/>
<path d="M20.5826 7.91446C20.5784 10.2109 18.6644 12.0474 16.3255 11.9952C16.1444 11.9911 15.9617 11.9686 15.7832 11.9373C15.4037 11.8713 15.2759 11.6044 15.4706 11.2772C15.7707 10.7732 16.0144 10.2462 16.1689 9.68237C16.6549 7.90729 16.4367 6.21876 15.516 4.61678C15.4596 4.51845 15.4043 4.40987 15.3891 4.30079C15.3594 4.0821 15.5154 3.91975 15.7728 3.87929C16.7259 3.72821 17.6268 3.88544 18.4671 4.34842C19.7819 5.07259 20.5857 6.43488 20.5831 7.91497L20.5826 7.91446Z" fill="#B6E0ED" style="fill:#B6E0ED;fill:color(display-p3 0.7137 0.8784 0.9294);fill-opacity:1;"/>
<path d="M19.6478 20.9983C19.4787 20.9983 19.3095 20.9999 19.1404 20.9983C18.7203 20.9942 18.5157 20.6936 18.6367 20.2987C18.7411 19.9587 18.8607 19.6125 18.8894 19.2627C19.0005 17.9142 18.6696 16.6564 17.9979 15.4815C17.6904 14.9443 17.3063 14.4639 16.8699 14.0209C16.8031 13.9528 16.7849 13.8391 16.7441 13.7459C16.8391 13.7111 16.9352 13.645 17.0296 13.646C19.6958 13.6819 21.9668 15.7432 22.2231 18.3434C22.2753 18.8734 22.2748 19.3922 22.0044 19.8711C21.5863 20.6106 20.9333 20.9758 20.0768 20.9983C19.9338 21.0019 19.7908 20.9988 19.6473 20.9988L19.6478 20.9983Z" fill="#B6E0ED" style="fill:#B6E0ED;fill:color(display-p3 0.7137 0.8784 0.9294);fill-opacity:1;"/>
</svg>
