<svg width="17" height="17" viewBox="0 0 17 17" fill="none" xmlns="http://www.w3.org/2000/svg">
<path d="M9.41 16L9.41 8.39769C10.3081 8.18195 11.095 7.64239 11.62 6.88241C12.145 6.12243 12.371 5.19547 12.2549 4.27913C12.1388 3.3628 11.6886 2.52154 10.9906 1.91655C10.2927 1.31155 9.39604 0.985369 8.4725 1.0005C7.55852 0.998712 6.67536 1.33079 5.98899 1.93433C5.30261 2.53786 4.8603 3.3713 4.74516 4.278C4.63003 5.1847 4.85001 6.10224 5.36376 6.85816C5.8775 7.61409 6.64965 8.15636 7.53507 8.38306L7.53507 11.3127L5.66013 11.3127L5.66013 12.7188L7.53506 12.7188L7.53506 14.1251L4.72266 14.1251L4.72266 16L9.41 16ZM8.619 6.62531C8.5946 6.62579 8.57019 6.62579 8.54578 6.62531C8.52138 6.62579 8.49697 6.62579 8.47257 6.62531C7.9753 6.62531 7.4984 6.42777 7.14678 6.07616C6.79517 5.72454 6.59763 5.24764 6.59763 4.75037C6.59763 4.25311 6.79517 3.77621 7.14678 3.42459C7.4984 3.07297 7.9753 2.87544 8.47257 2.87544C8.96899 2.85742 9.45229 3.03698 9.81652 3.37476C10.1808 3.71254 10.3962 4.18096 10.4156 4.67733C10.435 5.17369 10.2567 5.6575 9.91997 6.02266C9.5832 6.38782 9.11532 6.60455 8.619 6.62531Z" fill="#F9FCFF" style="fill:#F9FCFF;fill:color(display-p3 0.9751 0.9880 1.0000);fill-opacity:1;"/>
</svg>
