<svg width="24" height="24" viewBox="0 0 24 24" fill="none" xmlns="http://www.w3.org/2000/svg">
<path d="M2.90906 15.9076C2.90906 15.6208 2.90906 15.334 2.90906 15.0477C2.96454 14.7498 3.0039 14.4482 3.07836 14.1556C3.50374 12.4841 4.44839 11.162 5.77101 10.0947C5.87913 10.0076 5.95596 9.99801 6.07926 10.0698C7.03245 10.6257 8.05251 11.0126 9.12568 11.2554C9.47045 11.3334 9.81805 11.3986 10.1737 11.4713C10.1552 11.4967 10.1434 11.5173 10.1282 11.5341C9.10434 12.6402 8.7942 13.9871 8.84352 15.4508C8.85395 15.7573 9.10577 15.9646 9.405 15.9507C9.68812 15.9378 9.8982 15.707 9.90247 15.403C9.90389 15.3134 9.9001 15.2239 9.89962 15.1343C9.89725 14.3764 10.0428 13.6519 10.3947 12.9772C10.4677 12.8374 10.5578 12.7062 10.6475 12.5588C10.9951 13.0337 11.4314 13.2894 11.9924 13.2899C12.5567 13.2899 12.9954 13.029 13.3657 12.5233C13.5369 12.8973 13.7124 13.2219 13.8371 13.5652C14.0496 14.1489 14.1079 14.7604 14.0851 15.3809C14.0813 15.4863 14.0856 15.5988 14.1183 15.6969C14.1923 15.9196 14.4256 16.0604 14.6461 16.0374C14.8942 16.0115 15.1038 15.8487 15.1185 15.6045C15.1408 15.2306 15.1493 14.8514 15.1137 14.4798C15.0141 13.4417 14.6831 12.4903 13.9988 11.6868C13.9391 11.6169 13.8765 11.5494 13.8068 11.4704C13.8604 11.456 13.894 11.4436 13.9286 11.4383C15.3632 11.2204 16.7161 10.7636 17.98 10.0397C18.025 10.0138 18.1199 10.022 18.1621 10.054C19.497 11.0782 20.454 12.3773 20.8917 14.0235C21.2953 15.5413 21.1037 16.9749 20.1491 18.2548C19.4714 19.1631 18.5552 19.753 17.5252 20.1758C16.3368 20.6638 15.0919 20.8984 13.82 21.0056C12.0801 21.1522 10.3459 21.1263 8.62253 20.8179C7.42132 20.603 6.268 20.2448 5.23134 19.573C4.12877 18.8591 3.34772 17.8991 3.03662 16.5904C2.98304 16.3649 2.95079 16.1351 2.90906 15.9076Z" fill="#B6E0ED" style="fill:#B6E0ED;fill:color(display-p3 0.7137 0.8784 0.9294);fill-opacity:1;"/>
<path d="M4.81268 5.56836C5.27505 5.68711 5.73979 5.79963 6.19979 5.92652C6.76934 6.08405 7.33888 6.24158 7.90131 6.4221C8.46043 6.60166 9.00674 6.57963 9.55447 6.39241C9.9348 6.26265 10.3161 6.13481 10.6936 5.99738C11.6083 5.66508 12.5207 5.66556 13.436 5.99643C13.8026 6.12906 14.1739 6.24877 14.5428 6.37613C15.0986 6.56766 15.6521 6.56862 16.214 6.39098C17.0311 6.13241 17.8496 5.87816 18.6734 5.64497C18.9005 5.58081 19.1552 5.55495 19.3875 5.58655C19.7845 5.64018 19.9979 6.05388 19.8129 6.41204C19.7043 6.62177 19.5274 6.8042 19.3539 6.96891C19.0314 7.27584 18.6805 7.55164 18.357 7.85761C17.9971 8.19805 17.6993 8.59116 17.4565 9.02689C17.4186 9.0944 17.3512 9.15617 17.2834 9.19448C16.1097 9.84663 14.8501 10.2321 13.5256 10.4078C13.4796 10.414 13.4052 10.3724 13.3777 10.3302C12.6758 9.25624 11.2972 9.25289 10.6115 10.3231C10.5826 10.3681 10.501 10.4116 10.4508 10.4049C9.13288 10.2273 7.87903 9.84328 6.71006 9.19448C6.65505 9.16383 6.59245 9.12648 6.56163 9.07525C6.13008 8.3551 5.53303 7.78483 4.92365 7.22604C4.77901 7.09341 4.63011 6.96652 4.48357 6.8358C4.43046 6.7884 4.37734 6.74052 4.3285 6.6888C4.13596 6.48387 4.0359 6.25307 4.15209 5.97248C4.25736 5.71871 4.47551 5.59948 4.81268 5.56836Z" fill="#B6E0ED" style="fill:#B6E0ED;fill:color(display-p3 0.7137 0.8784 0.9294);fill-opacity:1;"/>
<path d="M8.83972 5.46067C9.05312 3.97201 10.6233 2.83337 12.2779 2.91286C14.2269 3.00623 15.3295 4.40008 15.4334 5.47359C15.2351 5.43098 15.0445 5.40417 14.8629 5.34766C14.299 5.17242 13.7446 4.96461 13.176 4.80899C12.1953 4.54037 11.2327 4.6687 10.2861 5.00196C9.8797 5.14512 9.46949 5.27824 9.06024 5.41326C8.99527 5.43481 8.92556 5.44247 8.84067 5.46019L8.83972 5.46067Z" fill="#B6E0ED" style="fill:#B6E0ED;fill:color(display-p3 0.7137 0.8784 0.9294);fill-opacity:1;"/>
<path d="M6.0067 4.7472C6.67346 3.84845 7.55694 3.44624 8.67138 3.38208C8.20379 3.95427 7.9055 4.56046 7.78315 5.27007C7.19132 5.09578 6.61181 4.92532 6.00623 4.74672L6.0067 4.7472Z" fill="#B6E0ED" style="fill:#B6E0ED;fill:color(display-p3 0.7137 0.8784 0.9294);fill-opacity:1;"/>
<path d="M18.2053 4.64479C17.6173 4.83057 17.0624 5.00582 16.4881 5.18729C16.3525 4.52173 16.0675 3.93805 15.6136 3.38501C16.6802 3.43768 17.529 3.81691 18.2053 4.64479Z" fill="#B6E0ED" style="fill:#B6E0ED;fill:color(display-p3 0.7137 0.8784 0.9294);fill-opacity:1;"/>
<path d="M12.5382 11.4178C12.5254 11.5533 12.5297 11.6931 12.4969 11.8233C12.4324 12.0805 12.1863 12.2423 11.9359 12.2131C11.6742 12.1825 11.4726 11.966 11.4631 11.6955C11.457 11.5111 11.4579 11.3263 11.4622 11.142C11.4693 10.8355 11.6955 10.6062 11.9867 10.6033C12.275 10.6004 12.5088 10.8279 12.5249 11.131C12.5301 11.2258 12.5259 11.3215 12.5259 11.4168L12.5382 11.4178Z" fill="#B6E0ED" style="fill:#B6E0ED;fill:color(display-p3 0.7137 0.8784 0.9294);fill-opacity:1;"/>
</svg>
