<svg width="25.000000" height="21.000000" viewBox="0 0 25 21" fill="none" xmlns="http://www.w3.org/2000/svg" xmlns:xlink="http://www.w3.org/1999/xlink">
	<desc>
			Created with Pixso.
	</desc>
	<defs>
		<clipPath id="clip256_377112">
			<rect id="sound off" rx="-0.500000" width="24.000000" height="20.000000" transform="translate(0.500000 0.500000)" fill="white" fill-opacity="0"/>
		</clipPath>
	</defs>
	<rect id="sound off" rx="-0.500000" width="24.000000" height="20.000000" transform="translate(0.500000 0.500000)" fill="#FFFFFF" fill-opacity="0"/>
	<g clip-path="url(#clip256_377112)">
		<path id="Vector 1" d="M14.45 19.97C14.84 19.24 14.84 18.87 14.84 18.87L14.62 5.94L14.62 3.59L14.62 2.99C14.62 2.99 14.2 1.55 14.06 1.16C13.87 0.65 13.67 0.77 13.67 0.77L12.89 0.38L12.1 0.77L11.32 1.55L10.15 4.1L7.03 5.94L4.29 5.44L1.95 5.44L0.78 5.94L0.78 14.43L3.9 14.07L7.03 14.07L12.1 18.87C12.5 19.6 14.06 20.71 14.45 19.97Z" fill="#E77E23" fill-opacity="1.000000" fill-rule="nonzero"/>
		<path id="Vector 1" d="M14.45 19.97C14.06 20.71 12.5 19.6 12.1 18.87L7.03 14.07L3.9 14.07L0.78 14.43L0.78 5.94L1.95 5.44L4.29 5.44L7.03 5.94L10.15 4.1L11.32 1.55L12.1 0.77L12.89 0.38L13.67 0.77C13.67 0.77 13.87 0.65 14.06 1.16C14.2 1.55 14.62 2.99 14.62 2.99L14.62 3.59L14.62 5.94L14.84 18.87C14.84 18.87 14.84 19.24 14.45 19.97Z" stroke="#FFFFFF" stroke-opacity="0" stroke-width="1.000000"/>
		<path id="Vector" d="M14.59 2.68C14.61 2.99 14.64 3.3 14.66 3.61C14.79 6.79 14.94 9.97 15.04 13.15C15.09 15 15.06 16.85 15.05 18.69C15.05 19.08 15 19.47 14.91 19.85C14.7 20.72 13.79 21.36 12.81 20.76C12.26 20.42 11.73 20.03 11.26 19.58C10.19 18.57 9.16 17.5 8.11 16.46C7.92 16.28 7.72 16.11 7.53 15.93C6.88 15.31 6.1 15.05 5.22 15.11C4.16 15.19 3.11 15.28 2.06 15.35C1.72 15.37 1.37 15.38 1.03 15.34C0.39 15.26 0.03 14.89 0.01 14.24C-0.02 13.48 0 12.72 0.02 11.96C0.05 10.45 0.08 8.93 0.12 7.41C0.12 7.15 0.14 6.88 0.18 6.63C0.36 5.52 0.99 4.96 2.15 4.97C2.93 4.98 3.71 5.09 4.49 5.18C5.41 5.29 6.32 5.4 7.24 5.22C8.57 4.97 9.52 4.21 10.15 3.03C10.44 2.51 10.66 1.95 10.95 1.43C11.13 1.1 11.34 0.77 11.61 0.51C12.05 0.07 12.6 -0.13 13.21 0.07C13.82 0.27 14.11 0.76 14.23 1.36C14.24 1.43 14.2 1.51 14.18 1.58C14.12 1.54 14.04 1.51 13.99 1.45C13.9 1.33 13.82 1.2 13.74 1.07C13.23 0.23 12.37 0.37 11.89 1.02C11.66 1.33 11.48 1.68 11.33 2.03C10.98 2.82 10.65 3.62 10.11 4.3C9.27 5.35 8.15 5.88 6.82 6.04C5.74 6.17 4.69 5.96 3.62 5.86C3.04 5.8 2.45 5.78 1.86 5.78C1.42 5.79 1.34 5.91 1.33 6.34C1.29 8.22 1.25 10.1 1.24 11.98C1.23 12.31 1.32 12.65 1.44 12.96C1.64 13.44 2.07 13.66 2.59 13.59C2.82 13.56 3.04 13.53 3.26 13.48C4.95 13.05 6.51 13.36 7.98 14.25C9.05 14.9 9.95 15.75 10.78 16.68C11.43 17.4 12.07 18.13 12.71 18.86C13.08 19.29 13.59 19.51 14.07 19.77C14.25 19.87 14.32 19.76 14.34 19.61C14.4 19.1 14.48 18.58 14.49 18.07C14.52 15.62 14.54 13.16 14.54 10.7C14.53 8.89 14.48 7.08 14.46 5.26C14.46 4.46 14.49 3.66 14.5 2.86C14.5 2.8 14.52 2.74 14.53 2.68C14.55 2.68 14.57 2.68 14.59 2.68L14.59 2.68Z" fill="#152226" fill-opacity="1.000000" fill-rule="nonzero"/>
		<path id="Vector" d="M1.3 1.71C1.9 1.55 2.57 1.62 3.26 1.74C5.8 2.19 10.28 8.24 10.28 8.24C10.28 8.24 16.27 14.94 18.29 18.85C18.43 19.11 18.54 19.4 18.6 19.66C18.63 19.81 18.57 20.01 18.46 20.07C18.39 20.11 18.12 19.97 18.02 19.86C17.68 19.45 17.36 19.01 17.05 18.58C15.56 16.49 14.13 14.36 12.56 12.31C10.84 10.07 8.45 7.64 8.45 7.64C8.45 7.64 3.48 2.36 1.92 1.99C1.72 1.94 1.53 1.89 1.33 1.83L1.3 1.71L1.3 1.71Z" fill="#152226" fill-opacity="1.000000" fill-rule="nonzero"/>
	</g>
</svg>
