<svg width="10" height="10" viewBox="0 0 10 10" fill="none" xmlns="http://www.w3.org/2000/svg">
<g clip-path="url(#clip0_1540_202871)">
<path d="M5 0C2.23929 0 0 2.23929 0 5C0 7.76071 2.23929 10 5 10C7.76071 10 10 7.76071 10 5C10 2.23929 7.76071 0 5 0ZM5.11071 7.82857C5.08214 7.83929 5.04821 7.84643 5.0125 7.84643H4.9875C4.9625 7.84643 4.93929 7.84286 4.91607 7.8375" fill="#0098EA" style="fill:#0098EA;fill:color(display-p3 0.0000 0.5961 0.9176);fill-opacity:1;"/>
<path d="M7.49275 3.21177C7.48039 3.1111 7.45391 3.02633 7.41684 2.95391C7.18204 2.49118 6.72656 2.50001 6.72656 2.50001H3.27344C3.27344 2.50001 2.81796 2.49118 2.58316 2.95391C2.54609 3.02633 2.51961 3.1111 2.50725 3.21177C2.50725 3.21177 2.48783 3.30185 2.51255 3.43961C2.52138 3.49436 2.5355 3.55617 2.56728 3.62682C2.60082 3.70276 2.65378 3.78754 2.69615 3.86172C2.78266 4.01008 3.03687 4.45338 3.41997 5.11569C3.94429 6.01819 4.54629 7.06906 4.54629 7.06906C4.54629 7.06906 4.59043 7.1397 4.63633 7.22448C4.6681 7.28276 4.70341 7.34811 4.74755 7.39933C4.77756 7.43289 4.82169 7.45585 4.86759 7.47351C4.88348 7.48057 4.89937 7.48587 4.91703 7.49117C4.93998 7.49647 4.96293 7.5 4.98764 7.5H5.01236C5.04767 7.5 5.08121 7.49294 5.10945 7.48234C5.11828 7.48057 5.12534 7.47704 5.13241 7.47351C5.17831 7.45585 5.22244 7.43289 5.25245 7.39933C5.29659 7.34811 5.3319 7.28276 5.36367 7.22448C5.40957 7.1397 5.45371 7.06906 5.45371 7.06906C5.45371 7.06906 6.05571 6.01819 6.58003 5.11569C6.96313 4.45338 7.21734 4.01008 7.30385 3.86172C7.34622 3.78754 7.39918 3.70276 7.43272 3.62682C7.4645 3.55617 7.47862 3.49436 7.48745 3.43961C7.51217 3.30185 7.49275 3.21177 7.49275 3.21177ZM4.69105 6.24073C4.69105 6.24073 4.36799 5.60668 4.255 5.39651C4.17379 5.24462 3.91957 4.79248 3.91957 4.79248L3.14986 3.41311C3.07748 3.29478 3.14103 3.19588 3.19576 3.15526C3.23989 3.1217 3.29815 3.1164 3.29815 3.1164H4.69105V6.24073ZM6.85014 3.41311L6.08043 4.79248C6.08043 4.79248 5.82621 5.24462 5.745 5.39651C5.63201 5.60668 5.30895 6.24073 5.30895 6.24073V3.1164H6.70185C6.70185 3.1164 6.76011 3.1217 6.80424 3.15526C6.85897 3.19588 6.92252 3.29478 6.85014 3.41311Z" fill="white" style="fill:white;fill-opacity:1;"/>
</g>
<defs>
<clipPath id="clip0_1540_202871">
<rect width="10" height="10" fill="white" style="fill:white;fill-opacity:1;"/>
</clipPath>
</defs>
</svg>
