<svg width="28" height="26" viewBox="0 0 28 26" fill="none" xmlns="http://www.w3.org/2000/svg">
<path d="M23.9779 23.7117L4.11545 23.9001C2.57716 23.9147 1.32483 22.565 1.34933 20.9186L1.58406 4.96293C1.57606 3.48409 2.79764 2.03254 4.4469 1.89364L21.6372 2.276L23.9614 2.32861C25.0976 2.35424 25.9884 3.38991 25.918 4.6033L25.8461 5.84204C26.4222 6.2507 26.7874 6.96783 26.7412 7.76092L25.9327 21.7279C25.8689 22.8374 25.0168 23.7022 23.9777 23.7115L23.9779 23.7117Z" fill="#E77E23" style="fill:#E77E23;fill:color(display-p3 0.9059 0.4941 0.1373);fill-opacity:1;"/>
<g opacity="0.3">
<path d="M6.25416 4.77098C5.06597 5.12475 1.83448 3.05585 4.93457 2.7514L21.7483 3.41039L23.8754 3.49576C25.011 3.54099 25.9179 4.5806 25.8664 5.77801" fill="#152226" style="fill:#152226;fill:color(display-p3 0.0824 0.1333 0.1490);fill-opacity:1;"/>
</g>
<g opacity="0.3">
<path d="M24.0849 23.8373L4.14322 23.6694C3.09859 23.6607 2.17523 23.0338 1.68767 22.1227C2.13257 22.438 2.6632 22.6247 3.22959 22.6293L23.1713 22.7972C24.2145 22.8063 25.0568 21.9621 25.1038 20.8606L25.1918 18.8172L21.6393 18.7076C20.3153 18.6667 19.2489 17.4621 19.2987 16.0631C19.3119 15.699 19.3994 15.359 19.5457 15.0586C19.9255 14.2786 20.7014 13.7653 21.5957 13.793L25.4029 13.9103L26.3599 13.9399L26.1489 18.8469L26.0175 21.9005C25.9705 23.0021 25.1283 23.8464 24.085 23.8371L24.0849 23.8373Z" fill="#152226" style="fill:#152226;fill:color(display-p3 0.0824 0.1333 0.1490);fill-opacity:1;"/>
</g>
<g opacity="0.3">
<path d="M26.461 13.7141L25.4986 13.6843L25.7979 6.7325C25.8143 6.35483 25.7363 5.99321 25.5864 5.67293C25.6483 5.69041 25.7186 5.70962 25.7878 5.72748L25.7829 5.84492C26.371 6.26348 26.7508 6.98639 26.7166 7.7778L26.4609 13.7142L26.461 13.7141Z" fill="#152226" style="fill:#152226;fill:color(display-p3 0.0824 0.1333 0.1490);fill-opacity:1;"/>
</g>
<g opacity="0.6">
<path d="M26.1102 6.24884C25.4267 6.12181 24.7373 6.04631 24.0474 6.02271L7.03764 5.44225C6.52966 5.42491 6.02561 5.29631 5.56264 5.05652C5.24296 4.89093 4.85021 4.65799 4.41184 4.33664C5.2098 4.75027 5.99858 4.99669 6.77659 5.04856C6.77659 5.04856 24.5244 5.64375 24.5667 5.6455C24.6088 5.64719 26.1103 6.2489 26.1103 6.2489L26.1102 6.24884Z" fill="#F9FCFF" style="fill:#F9FCFF;fill:color(display-p3 0.9751 0.9880 1.0000);fill-opacity:1;"/>
</g>
<g opacity="0.6">
<path d="M25.3802 3.30306C25.1142 3.15442 24.8157 3.06516 24.4991 3.05251L22.1556 2.95833L4.82293 2.26846C3.16285 2.37747 1.95399 3.80352 1.98488 5.27856L1.99523 21.1893C1.9957 22.0299 2.33211 22.7986 2.86881 23.3503C2.01778 22.8222 1.43751 21.8427 1.43728 20.7388L1.42687 4.82821C1.39593 3.35299 2.60474 1.92705 4.26492 1.8181L21.5975 2.50792L23.941 2.60209C24.5071 2.62474 25.0162 2.89205 25.3801 3.303L25.3802 3.30306Z" fill="#F9FCFF" style="fill:#F9FCFF;fill:color(display-p3 0.9751 0.9880 1.0000);fill-opacity:1;"/>
</g>
<g opacity="0.3">
<path d="M14.5403 5.60455L11.198 5.13882L11.0423 4.54534L10.8228 3.7068L10.3804 2.01972L12.7818 2.01532L13.8728 2.01352L14.5403 5.60455Z" fill="#152226" style="fill:#152226;fill:color(display-p3 0.0824 0.1333 0.1490);fill-opacity:1;"/>
</g>
<path d="M2.7093 23.7651C2.44899 23.617 2.20782 23.4258 1.99346 23.1947C1.42604 22.5832 1.12068 21.7731 1.13347 20.9139L1.3683 4.95823C1.3702 4.83062 1.46837 4.72935 1.5876 4.73206C1.70679 4.73461 1.80198 4.84039 1.80008 4.96799L1.5653 20.9235C1.55443 21.6568 1.81503 22.348 2.29914 22.8698C2.78325 23.3917 3.42724 23.6755 4.11242 23.669L23.9748 23.4806C24.8955 23.4722 25.6609 22.6956 25.7174 21.7126L26.5259 7.74565C26.5653 7.06758 26.2594 6.41206 25.7277 6.03475C25.4466 5.83501 25.1196 5.72573 24.7812 5.71807L6.56219 5.30666C6.46722 5.30311 6.3799 5.29808 6.29997 5.29156C4.72528 5.16873 3.44967 4.41393 3.4574 3.60923C3.4598 3.35009 3.61849 2.74049 5.03496 2.67703C5.15404 2.6717 5.2552 2.77078 5.26082 2.89826C5.26645 3.02574 5.17442 3.13349 5.05534 3.13883C4.25261 3.17481 3.89124 3.4046 3.88928 3.61635C3.88587 3.97346 4.72114 4.70508 6.32991 4.83067C6.40469 4.83682 6.48591 4.84151 6.5721 4.84476L24.788 5.25591C25.2086 5.26559 25.6154 5.40164 25.965 5.64991C26.6258 6.11874 27.0059 6.93378 26.9569 7.77672L26.1484 21.7437C26.0781 22.9664 25.1261 23.9324 23.9809 23.9429L4.11859 24.1313C3.61905 24.136 3.13811 24.009 2.70936 23.765L2.7093 23.7651Z" fill="#152226" style="fill:#152226;fill:color(display-p3 0.0824 0.1333 0.1490);fill-opacity:1;"/>
<path d="M21.6647 3.48134C21.595 3.44168 21.548 3.36257 21.5492 3.27244C21.5511 3.14483 21.6493 3.04355 21.7685 3.04627L23.8957 3.09438C24.5045 3.10791 25.0676 3.38022 25.4813 3.86106C25.8951 4.3419 26.1023 4.96489 26.0646 5.61519C26.0572 5.74253 25.9548 5.83879 25.8357 5.83023C25.7168 5.82173 25.6262 5.71157 25.6336 5.58412C25.6639 5.06098 25.4972 4.55992 25.1644 4.17315C24.8315 3.78637 24.3786 3.56736 23.8889 3.55654L21.7618 3.50843C21.7267 3.50767 21.6939 3.49791 21.6648 3.4814L21.6647 3.48134Z" fill="#152226" style="fill:#152226;fill:color(display-p3 0.0824 0.1333 0.1490);fill-opacity:1;"/>
<path d="M3.078 5.8589C3.07128 5.85503 3.06483 5.85062 3.05853 5.8456C2.85691 5.68452 2.71192 5.51459 2.62773 5.34103C2.58999 5.26338 2.6179 5.1705 2.68985 5.13352C2.7619 5.0966 2.85072 5.12986 2.88841 5.20734C2.95015 5.3348 3.06829 5.47043 3.22998 5.59975C3.29598 5.65252 3.3111 5.75036 3.26377 5.81824C3.22093 5.87965 3.14165 5.89553 3.078 5.8589Z" fill="#152226" style="fill:#152226;fill:color(display-p3 0.0824 0.1333 0.1490);fill-opacity:1;"/>
<path d="M3.69088 22.4088C3.62827 22.3728 3.59526 22.2942 3.61627 22.2214C3.63974 22.1397 3.72206 22.0962 3.80013 22.1243C4.09779 22.2312 4.4349 22.2869 4.80214 22.29L4.89643 22.2915C4.97788 22.2927 5.04557 22.3638 5.04749 22.4502C5.04946 22.5365 4.98494 22.6056 4.90338 22.6042L4.81015 22.6028C4.41201 22.5995 4.04328 22.538 3.71519 22.4202C3.70669 22.4171 3.69852 22.4134 3.69093 22.409L3.69088 22.4088ZM5.98711 22.6029C5.9401 22.5758 5.9073 22.5235 5.90601 22.4637C5.90404 22.3774 5.96856 22.3084 6.05012 22.3097L7.20392 22.328C7.28537 22.3292 7.35306 22.4003 7.35498 22.4867C7.35695 22.573 7.29243 22.6421 7.21087 22.6408L6.05707 22.6225C6.03188 22.6221 6.00808 22.615 5.98711 22.6029ZM8.29481 22.6396C8.2478 22.6125 8.215 22.5601 8.21372 22.5004C8.21175 22.4141 8.27626 22.3451 8.35782 22.3464L9.51162 22.3646C9.59307 22.3659 9.66072 22.4371 9.66269 22.5234C9.66466 22.6097 9.60014 22.6787 9.51858 22.6774L8.36478 22.6591C8.33958 22.6588 8.31579 22.6516 8.29481 22.6396ZM10.6026 22.6761C10.5556 22.649 10.5228 22.5966 10.5215 22.5369C10.5195 22.4506 10.584 22.3816 10.6656 22.3829L11.8194 22.4012C11.9008 22.4024 11.9685 22.4735 11.9704 22.5599C11.9724 22.6462 11.9079 22.7152 11.8263 22.7139L10.6725 22.6957C10.6473 22.6953 10.6235 22.6882 10.6026 22.6761ZM12.9102 22.7127C12.8632 22.6856 12.8304 22.6331 12.8291 22.5734C12.8272 22.4871 12.8917 22.4181 12.9732 22.4194L14.127 22.4376C14.2085 22.4389 14.2762 22.51 14.2781 22.5964C14.2801 22.6827 14.2155 22.7517 14.134 22.7504L12.9802 22.7321C12.955 22.7318 12.9312 22.7246 12.9102 22.7126L12.9102 22.7127ZM15.2179 22.7493C15.1709 22.7222 15.1381 22.6699 15.1368 22.6101C15.1349 22.5237 15.1993 22.4548 15.2809 22.4561L16.4347 22.4744C16.5161 22.4756 16.5838 22.5467 16.5857 22.6331C16.5877 22.7194 16.5232 22.7885 16.4416 22.7872L15.2878 22.7689C15.2626 22.7685 15.2388 22.7614 15.2179 22.7493ZM17.5256 22.7858C17.4786 22.7588 17.4458 22.7064 17.4445 22.6467C17.4426 22.5604 17.5071 22.4913 17.5886 22.4926L18.7424 22.5109C18.8239 22.5122 18.8916 22.5832 18.8935 22.6697C18.8955 22.756 18.831 22.825 18.7494 22.8237L17.5956 22.8054C17.5704 22.805 17.5466 22.7979 17.5256 22.7858ZM19.8332 22.8224C19.7862 22.7953 19.7535 22.7429 19.7522 22.6831C19.7502 22.5968 19.8147 22.5278 19.8963 22.5291L21.0501 22.5474C21.1317 22.5487 21.1992 22.6197 21.2012 22.7061C21.2031 22.7924 21.1386 22.8615 21.0571 22.8602L19.9033 22.8419C19.8781 22.8415 19.8543 22.8344 19.8333 22.8223L19.8332 22.8224ZM22.141 22.859C22.094 22.8319 22.0612 22.7795 22.0599 22.7198C22.0579 22.6335 22.1224 22.5645 22.204 22.5658L23.2335 22.5821C23.2709 22.5824 23.3095 22.5816 23.3474 22.5793C23.4287 22.5746 23.5005 22.6409 23.508 22.727C23.5155 22.8133 23.4559 22.887 23.3747 22.8917C23.3305 22.8943 23.2857 22.8954 23.2413 22.8949L22.2109 22.8786C22.1857 22.8783 22.1619 22.8711 22.1409 22.8591L22.141 22.859ZM24.3504 22.4665C24.3319 22.4558 24.3151 22.441 24.3015 22.4222C24.2508 22.3525 24.2614 22.2547 24.3252 22.2036C24.5335 22.0369 24.7068 21.8189 24.8265 21.5732C24.8669 21.4902 24.9017 21.4033 24.93 21.3146C24.9557 21.2338 25.0393 21.193 25.1167 21.2234C25.1937 21.254 25.2358 21.344 25.2101 21.4248C25.1773 21.5278 25.1369 21.6288 25.0899 21.7251C24.9512 22.0099 24.7503 22.2627 24.5089 22.4558C24.4622 22.4931 24.4002 22.4952 24.3504 22.4665ZM25.1271 20.3017C25.0772 20.2729 25.0439 20.2158 25.0461 20.1527L25.0914 18.9336C25.0946 18.8475 25.1633 18.7832 25.2446 18.7899C25.3261 18.7967 25.3895 18.8719 25.3864 18.958L25.3412 20.177C25.338 20.2632 25.2694 20.3275 25.1879 20.3207C25.1661 20.319 25.1455 20.3123 25.1271 20.3017ZM3.93814 6.25369C3.87679 6.21836 3.84367 6.14198 3.86245 6.06987C3.88397 5.98742 3.96514 5.94185 4.04385 5.96785C4.38675 6.08129 4.75939 6.1589 5.15119 6.19852C5.23256 6.20686 5.29485 6.28322 5.29016 6.36905C5.28553 6.45506 5.2158 6.51815 5.13443 6.50981C4.72193 6.46808 4.32877 6.38607 3.96598 6.26608C3.95622 6.26284 3.94694 6.25862 3.93829 6.25364L3.93814 6.25369ZM25.2177 17.8636C25.1677 17.8348 25.1344 17.7777 25.1366 17.7147L25.1819 16.4956C25.1851 16.4095 25.2538 16.3451 25.3352 16.3518C25.4166 16.3585 25.48 16.4338 25.4769 16.5199L25.4317 17.7389C25.4285 17.825 25.3597 17.8894 25.2784 17.8827C25.2566 17.881 25.236 17.8742 25.2177 17.8636ZM6.23031 6.54755C6.18225 6.51987 6.14919 6.46581 6.14917 6.40486C6.14911 6.31853 6.2151 6.25119 6.29665 6.25445L7.45086 6.30016C7.53231 6.30336 7.59857 6.37598 7.59864 6.46232C7.5987 6.54865 7.53271 6.61599 7.45116 6.61273L6.29695 6.56702C6.27297 6.5661 6.25034 6.55909 6.23031 6.54755ZM8.53863 6.63891C8.49057 6.61123 8.45751 6.55716 8.4575 6.49622C8.45743 6.40988 8.52342 6.34254 8.60497 6.3458L9.75919 6.39151C9.84074 6.39477 9.90689 6.46734 9.90696 6.55367C9.90703 6.64 9.84104 6.70735 9.75949 6.70409L8.60527 6.65838C8.58129 6.65746 8.55866 6.65044 8.53863 6.63891ZM25.3082 15.4255C25.2582 15.3967 25.2249 15.3396 25.2271 15.2765L25.2724 14.0575C25.2756 13.9714 25.3443 13.907 25.4257 13.9137C25.5072 13.9204 25.5707 13.9956 25.5675 14.0818L25.5222 15.3008C25.519 15.3869 25.4503 15.4513 25.3689 15.4446C25.3471 15.4429 25.3265 15.4361 25.3082 15.4255ZM10.847 6.73026C10.7989 6.70258 10.7659 6.64858 10.7658 6.58757C10.7658 6.50124 10.8317 6.4339 10.9133 6.43716L12.0675 6.48286C12.1491 6.48612 12.2152 6.55869 12.2153 6.64502C12.2154 6.73136 12.1494 6.7987 12.0678 6.79544L10.9136 6.74973C10.8896 6.74881 10.867 6.7418 10.847 6.73026ZM13.1553 6.82162C13.1072 6.79393 13.0742 6.73987 13.0741 6.67893C13.0741 6.59259 13.1401 6.52525 13.2216 6.52851L14.3758 6.57422C14.4573 6.57742 14.5235 6.65004 14.5236 6.73638C14.5237 6.82271 14.4577 6.89005 14.3761 6.88679L13.2219 6.84109C13.1979 6.84016 13.1753 6.83315 13.1553 6.82162ZM25.3988 12.9873C25.3488 12.9585 25.3155 12.9013 25.3177 12.8383L25.363 11.6193C25.3662 11.5331 25.4348 11.4687 25.5163 11.4754C25.5977 11.4823 25.6612 11.5573 25.658 11.6435L25.6128 12.8626C25.6096 12.9487 25.541 13.0131 25.4595 13.0063C25.4377 13.0045 25.4171 12.9978 25.3988 12.9873ZM15.4636 6.91297C15.4155 6.88529 15.3826 6.83129 15.3825 6.77028C15.3824 6.68394 15.4484 6.6166 15.5299 6.61987L16.6842 6.66557C16.7657 6.66883 16.8319 6.7414 16.8319 6.82773C16.832 6.91407 16.766 6.98141 16.6845 6.97815L15.5302 6.93244C15.5063 6.93152 15.4836 6.92451 15.4636 6.91297ZM17.7719 7.00433C17.7239 6.97664 17.6908 6.92258 17.6908 6.86163C17.6907 6.7753 17.7567 6.70796 17.8383 6.71122L18.9925 6.75693C19.0739 6.76013 19.1402 6.83275 19.1403 6.91909C19.1403 7.00542 19.0743 7.07276 18.9928 7.0695L17.8386 7.02379C17.8146 7.02287 17.792 7.01586 17.7719 7.00433ZM25.4893 10.5492C25.4393 10.5204 25.406 10.4632 25.4082 10.4002L25.4535 9.18116C25.4567 9.09503 25.5254 9.03067 25.6068 9.03733C25.6883 9.04405 25.7516 9.11934 25.7486 9.20542L25.7033 10.4245C25.7001 10.5106 25.6314 10.575 25.55 10.5683C25.5282 10.5665 25.5076 10.5597 25.4893 10.5492ZM20.0803 7.09568C20.0322 7.068 19.9991 7.01394 19.9991 6.95299C19.9991 6.86665 20.065 6.79931 20.1466 6.80257L21.3008 6.84828C21.3823 6.85148 21.4485 6.92411 21.4486 7.01044C21.4487 7.09678 21.3827 7.16411 21.3011 7.16085L20.1469 7.11515C20.1229 7.11423 20.1003 7.10721 20.0803 7.09568ZM22.3886 7.18703C22.3405 7.15935 22.3075 7.10529 22.3075 7.04434C22.3074 6.95801 22.3734 6.89067 22.4549 6.89393L23.6091 6.93963C23.6907 6.9429 23.7568 7.01546 23.7569 7.1018C23.757 7.18813 23.691 7.25547 23.6094 7.25221L22.4552 7.2065C22.4312 7.20558 22.4086 7.19857 22.3886 7.18703ZM25.5145 8.11379C25.4805 8.09418 25.4531 8.0609 25.4405 8.01878C25.3643 7.76292 25.1919 7.54205 24.9677 7.41293C24.8933 7.37007 24.8143 7.33785 24.7327 7.31692C24.6528 7.29657 24.6011 7.21185 24.6174 7.12794C24.6337 7.04403 24.7116 6.99249 24.7915 7.01301C24.8988 7.04054 25.0029 7.08296 25.1008 7.13935C25.3953 7.30896 25.6217 7.59905 25.7217 7.93517C25.7465 8.01838 25.7037 8.10467 25.626 8.12769C25.5876 8.13909 25.5478 8.13297 25.5145 8.11379Z" fill="#152226" style="fill:#152226;fill:color(display-p3 0.0824 0.1333 0.1490);fill-opacity:1;"/>
<path d="M2.65917 21.9834C2.64328 21.9743 2.62857 21.9619 2.61598 21.9466C2.48168 21.7826 2.36893 21.597 2.28071 21.3948C2.24608 21.3155 2.27772 21.224 2.35136 21.1903C2.42494 21.1568 2.51284 21.1937 2.54741 21.2732C2.62331 21.4473 2.7203 21.6068 2.83529 21.7474C2.88959 21.8138 2.88449 21.9122 2.82389 21.9672C2.77732 22.0094 2.71161 22.0138 2.65901 21.9835L2.65917 21.9834Z" fill="#152226" style="fill:#152226;fill:color(display-p3 0.0824 0.1333 0.1490);fill-opacity:1;"/>
<path d="M25.7459 6.04608C25.6729 6.00459 25.6254 5.92012 25.6308 5.8265L25.7027 4.58776C25.7331 4.0644 25.5665 3.56323 25.2339 3.17646C24.9012 2.78981 24.4482 2.57073 23.9583 2.55963L21.634 2.50696C21.5147 2.50407 21.4196 2.39852 21.4215 2.27102C21.4234 2.14342 21.5216 2.04214 21.6408 2.04486L23.9651 2.09753C24.5742 2.11118 25.1373 2.38354 25.5509 2.86443C25.9645 3.34533 26.1716 3.96837 26.1338 4.61889L26.0619 5.85763C26.0546 5.98498 25.9521 6.08123 25.8331 6.07267C25.8017 6.07044 25.7722 6.06106 25.746 6.04614L25.7459 6.04608Z" fill="#152226" style="fill:#152226;fill:color(display-p3 0.0824 0.1333 0.1490);fill-opacity:1;"/>
<path d="M1.48396 5.16718C1.41571 5.12834 1.36897 5.05156 1.36842 4.96323C1.35932 3.28667 2.73231 1.80636 4.42903 1.66333C4.54788 1.65332 4.65222 1.74838 4.66227 1.87553C4.67226 2.00279 4.58401 2.11397 4.46526 2.12405C2.98796 2.24845 1.79245 3.52202 1.80029 4.96281C1.80102 5.09049 1.70481 5.19401 1.58558 5.194C1.54892 5.19404 1.51419 5.18423 1.48391 5.16701L1.48396 5.16718Z" fill="#152226" style="fill:#152226;fill:color(display-p3 0.0824 0.1333 0.1490);fill-opacity:1;"/>
<path d="M26.4228 17.7338L21.5461 17.6695C20.2274 17.6521 19.1839 16.459 19.255 15.05C19.3216 13.7318 20.3445 12.7075 21.5783 12.7239L26.619 12.7903C26.9418 12.7945 27.1972 13.0866 27.1798 13.4315L26.9913 17.1643C26.975 17.487 26.7247 17.7376 26.4227 17.7337L26.4228 17.7338Z" fill="#E77E23" style="fill:#E77E23;fill:color(display-p3 0.9059 0.4941 0.1373);fill-opacity:1;"/>
<g opacity="0.6">
<path d="M21.9408 16.4334C22.4699 16.2664 22.7578 15.6582 22.5839 15.075C22.41 14.4919 21.8402 14.1545 21.3112 14.3216C20.7821 14.4886 20.4942 15.0968 20.6681 15.68C20.842 16.2631 21.4118 16.6005 21.9408 16.4334Z" fill="#F9FCFF" style="fill:#F9FCFF;fill:color(display-p3 0.9751 0.9880 1.0000);fill-opacity:1;"/>
</g>
<g opacity="0.3">
<path d="M26.4721 17.7667L21.5776 17.6161C20.2546 17.5752 19.1889 16.3716 19.2387 14.9737C19.2425 14.8757 19.2511 14.779 19.2653 14.685C19.4508 15.8554 20.4126 16.7852 21.573 16.8205L26.4673 16.9717C26.7704 16.9811 27.0176 16.7366 27.0294 16.4163L27.1399 13.3035C27.1588 13.3677 27.1679 13.4367 27.1654 13.5077L27.0342 17.2112C27.0229 17.5318 26.7752 17.776 26.4721 17.7666L26.4721 17.7667Z" fill="#152226" style="fill:#152226;fill:color(display-p3 0.0824 0.1333 0.1490);fill-opacity:1;"/>
</g>
<g opacity="0.6">
<path d="M27.1838 13.5096C27.0827 13.4128 26.9507 13.3515 26.8058 13.3473L21.7396 13.1909C20.8448 13.1633 20.0682 13.6769 19.6881 14.4575C19.5417 14.7581 19.4542 15.0983 19.441 15.4627C19.4306 15.7528 19.4686 16.0339 19.5468 16.2985C19.3399 15.9071 19.2284 15.4548 19.2456 14.9802C19.2588 14.6157 19.3464 14.2755 19.4927 13.9749C19.8728 13.1943 20.6493 12.6807 21.5442 12.7083L26.6105 12.8647C26.9342 12.8748 27.1951 13.1679 27.1837 13.5095L27.1838 13.5096Z" fill="#F9FCFF" style="fill:#F9FCFF;fill:color(display-p3 0.9751 0.9880 1.0000);fill-opacity:1;"/>
</g>
<path d="M20.3879 17.586C20.1429 17.4466 19.9183 17.2629 19.7222 17.0387C19.2443 16.4923 19.0018 15.7811 19.0395 15.0361C19.1124 13.5919 20.2283 12.4746 21.5799 12.4926L26.6207 12.5591C26.8363 12.5619 27.0367 12.6566 27.1844 12.8255C27.3322 12.9945 27.4072 13.2145 27.3956 13.4451L27.2071 17.1779C27.1846 17.6246 26.8394 17.9701 26.4214 17.9646L21.5446 17.9003C21.1335 17.8949 20.7397 17.7862 20.388 17.586L20.3879 17.586ZM26.7778 13.0647C26.7291 13.037 26.6746 13.0219 26.6176 13.0212L21.5768 12.9547C20.4561 12.9399 19.5311 13.8661 19.4707 15.0634C19.4395 15.6811 19.6405 16.2707 20.0366 16.7238C20.4328 17.1765 20.9694 17.4304 21.5476 17.438L26.4242 17.5024C26.6113 17.5049 26.7658 17.3502 26.7758 17.1504L26.9642 13.4176C26.9694 13.3145 26.9359 13.2161 26.8697 13.1405C26.8427 13.1094 26.8115 13.084 26.7777 13.0648L26.7778 13.0647Z" fill="#152226" style="fill:#152226;fill:color(display-p3 0.0824 0.1333 0.1490);fill-opacity:1;"/>
<path d="M21.826 16.2188C22.3625 16.0437 22.6623 15.4355 22.4958 14.8604C22.3293 14.2853 21.7595 13.9611 21.2231 14.1362C20.6867 14.3114 20.3868 14.9196 20.5533 15.4946C20.7198 16.0697 21.2896 16.3939 21.826 16.2188Z" fill="#152226" style="fill:#152226;fill:color(display-p3 0.0824 0.1333 0.1490);fill-opacity:1;"/>
<g opacity="0.19">
<path d="M9.37489 14.6593L6.78566 14.5645C6.2744 14.5458 5.86094 14.0865 5.86856 13.5455L5.91517 10.2207C5.92257 9.69242 6.3296 9.28472 6.82891 9.30523L9.40005 9.41109C9.90781 9.432 10.3179 9.88714 10.3133 10.4245L10.2846 13.7381C10.28 14.2671 9.87462 14.6776 9.37473 14.6594L9.37489 14.6593Z" fill="#F9FCFF" style="fill:#F9FCFF;fill:color(display-p3 0.9751 0.9880 1.0000);fill-opacity:1;"/>
</g>
<g opacity="0.19">
<path d="M9.54154 18.7251L6.32117 18.5525C5.98903 18.5348 5.72316 18.2349 5.72803 17.8836L5.73598 17.3087C5.74072 16.9646 6.0038 16.6977 6.32912 16.7068L9.54736 16.7975C9.88396 16.8069 10.1581 17.1075 10.1549 17.4636L10.1491 18.1204C10.1461 18.4718 9.87373 18.7427 9.54159 18.725L9.54154 18.7251Z" fill="#F9FCFF" style="fill:#F9FCFF;fill:color(display-p3 0.9751 0.9880 1.0000);fill-opacity:1;"/>
</g>
<g opacity="0.19">
<path d="M21.4486 14.916C21.6636 14.8228 21.7958 14.6409 21.7438 14.5098C21.6918 14.3786 21.4753 14.3479 21.2603 14.4411C21.0453 14.5343 20.9131 14.7162 20.9651 14.8473C21.0171 14.9785 21.2336 15.0092 21.4486 14.916Z" fill="#F9FCFF" style="fill:#F9FCFF;fill:color(display-p3 0.9751 0.9880 1.0000);fill-opacity:1;"/>
</g>
</svg>
